<svg xmlns="http://www.w3.org/2000/svg" id="canvas" viewBox="192.402 299.294 783.412 48.688"><path d="M 195.45,317.41 C 195.36 317.79, 195.41 318.29, 195.49 319.21 C 195.58 320.12, 195.66 320.76, 195.87 321.96 C 196.07 323.16, 196.27 324.03, 196.51 325.21 C 196.75 326.40, 196.88 327.00, 197.06 327.90 C 197.25 328.80, 197.25 329.20, 197.44 329.74 C 197.62 330.27, 197.75 330.50, 197.99 330.57 C 198.23 330.64, 198.39 330.53, 198.62 330.08 C 198.84 329.63, 198.93 329.18, 199.13 328.30 C 199.32 327.42, 199.38 326.79, 199.58 325.68 C 199.78 324.57, 199.84 323.83, 200.13 322.73 C 200.41 321.64, 200.59 321.09, 201.01 320.20 C 201.42 319.32, 201.68 318.92, 202.20 318.31 C 202.72 317.70, 203.04 317.46, 203.61 317.16 C 204.19 316.86, 204.52 316.79, 205.08 316.81 C 205.65 316.83, 205.89 316.91, 206.44 317.24 C 206.99 317.58, 207.26 317.87, 207.83 318.47 C 208.40 319.07, 208.71 319.48, 209.28 320.26 C 209.85 321.05, 210.12 321.52, 210.68 322.38 C 211.24 323.24, 211.52 323.72, 212.08 324.56 C 212.64 325.41, 212.92 325.86, 213.46 326.61 C 214.00 327.36, 214.27 327.72, 214.76 328.31 C 215.26 328.91, 215.51 329.18, 215.94 329.57 C 216.37 329.97, 216.55 330.10, 216.91 330.27 C 217.26 330.44, 217.45 330.45, 217.73 330.43 C 218.01 330.41, 218.16 330.31, 218.30 330.18 C 218.45 330.05, 218.47 329.93, 218.44 329.80 C 218.40 329.67, 218.24 329.58, 218.13 329.54 C 218.02 329.50, 217.98 329.57, 217.90 329.60 C 217.82 329.63, 217.83 329.70, 217.72 329.69 C 217.61 329.68, 217.56 329.70, 217.36 329.53 C 217.16 329.36, 217.04 329.22, 216.71 328.83 C 216.37 328.44, 216.13 328.16, 215.69 327.58 C 215.24 326.99, 214.98 326.64, 214.48 325.90 C 213.97 325.16, 213.69 324.71, 213.16 323.86 C 212.62 323.02, 212.35 322.55, 211.80 321.67 C 211.24 320.79, 211.00 320.28, 210.39 319.45 C 209.78 318.63, 209.43 318.19, 208.75 317.54 C 208.07 316.90, 207.71 316.60, 206.98 316.25 C 206.25 315.89, 205.87 315.77, 205.11 315.76 C 204.34 315.76, 203.88 315.84, 203.14 316.20 C 202.39 316.56, 202.01 316.87, 201.37 317.56 C 200.72 318.25, 200.43 318.69, 199.91 319.65 C 199.39 320.60, 199.16 321.18, 198.77 322.32 C 198.39 323.47, 198.21 324.21, 197.97 325.37 C 197.73 326.52, 197.63 327.16, 197.57 328.08 C 197.52 329.00, 197.58 329.49, 197.69 329.96 C 197.80 330.44, 198.00 330.53, 198.13 330.46 C 198.26 330.39, 198.30 330.16, 198.33 329.61 C 198.37 329.06, 198.36 328.66, 198.29 327.73 C 198.22 326.80, 198.18 326.16, 198.00 324.95 C 197.81 323.74, 197.63 322.86, 197.36 321.67 C 197.09 320.47, 196.92 319.85, 196.64 318.97 C 196.36 318.10, 196.20 317.61, 195.96 317.30 C 195.72 316.99, 195.54 317.03, 195.45 317.41" style="stroke: black; fill: black;"/><path d="M 229.97,321.11 C 230.00 320.84, 229.98 320.48, 229.68 320.04 C 229.39 319.60, 229.10 319.27, 228.49 318.92 C 227.88 318.57, 227.45 318.32, 226.64 318.27 C 225.82 318.23, 225.34 318.35, 224.43 318.68 C 223.51 319.02, 222.94 319.28, 222.08 319.93 C 221.23 320.58, 220.75 321.08, 220.15 321.94 C 219.55 322.79, 219.29 323.36, 219.09 324.21 C 218.89 325.06, 218.88 325.51, 219.15 326.20 C 219.43 326.89, 219.73 327.23, 220.47 327.66 C 221.20 328.09, 221.82 328.24, 222.84 328.36 C 223.87 328.47, 224.51 328.38, 225.60 328.22 C 226.69 328.05, 227.28 327.90, 228.30 327.54 C 229.33 327.19, 229.91 326.98, 230.74 326.44 C 231.57 325.90, 231.94 325.52, 232.45 324.84 C 232.97 324.16, 233.13 323.76, 233.32 323.04 C 233.51 322.33, 233.53 321.97, 233.40 321.26 C 233.28 320.56, 233.11 320.15, 232.69 319.52 C 232.28 318.89, 231.94 318.57, 231.33 318.11 C 230.73 317.65, 230.32 317.43, 229.69 317.22 C 229.05 317.01, 228.50 316.99, 228.16 317.06 C 227.82 317.13, 227.79 317.33, 228.00 317.57 C 228.20 317.82, 228.69 317.98, 229.19 318.30 C 229.70 318.61, 230.03 318.77, 230.53 319.16 C 231.03 319.55, 231.33 319.77, 231.69 320.23 C 232.06 320.70, 232.22 320.97, 232.35 321.48 C 232.47 321.98, 232.47 322.23, 232.31 322.77 C 232.16 323.30, 232.02 323.61, 231.57 324.14 C 231.13 324.67, 230.83 324.97, 230.09 325.41 C 229.36 325.84, 228.84 326.01, 227.90 326.30 C 226.96 326.58, 226.39 326.70, 225.40 326.83 C 224.41 326.97, 223.84 327.01, 222.95 326.98 C 222.06 326.95, 221.54 326.89, 220.95 326.67 C 220.36 326.45, 220.14 326.31, 219.98 325.88 C 219.83 325.46, 219.92 325.17, 220.17 324.54 C 220.42 323.91, 220.69 323.45, 221.25 322.75 C 221.80 322.05, 222.21 321.62, 222.94 321.05 C 223.67 320.49, 224.19 320.24, 224.91 319.94 C 225.63 319.63, 225.98 319.51, 226.56 319.54 C 227.14 319.58, 227.36 319.84, 227.81 320.10 C 228.26 320.36, 228.48 320.57, 228.82 320.83 C 229.16 321.09, 229.29 321.33, 229.52 321.38 C 229.75 321.44, 229.94 321.38, 229.97 321.11" style="stroke: black; fill: black;"/><path d="M 237.62,302.47 C 237.52 302.65, 237.50 302.71, 237.54 303.25 C 237.58 303.78, 237.60 304.17, 237.82 305.13 C 238.05 306.10, 238.28 306.78, 238.65 308.07 C 239.02 309.36, 239.26 310.15, 239.69 311.58 C 240.12 313.00, 240.35 313.85, 240.79 315.19 C 241.22 316.54, 241.45 317.16, 241.86 318.30 C 242.26 319.44, 242.46 319.96, 242.80 320.89 C 243.14 321.81, 243.31 322.30, 243.54 322.93 C 243.78 323.56, 243.89 323.74, 243.97 324.03 C 244.06 324.31, 243.99 324.26, 243.95 324.34 C 243.92 324.42, 243.83 324.35, 243.81 324.41 C 243.79 324.48, 243.76 324.61, 243.85 324.66 C 243.94 324.70, 244.08 324.77, 244.25 324.64 C 244.43 324.51, 244.67 324.41, 244.73 324.00 C 244.79 323.60, 244.73 323.32, 244.57 322.62 C 244.40 321.92, 244.21 321.45, 243.89 320.51 C 243.57 319.57, 243.35 319.06, 242.99 317.92 C 242.62 316.78, 242.43 316.16, 242.05 314.81 C 241.68 313.46, 241.48 312.61, 241.11 311.18 C 240.73 309.74, 240.54 308.93, 240.18 307.63 C 239.81 306.34, 239.62 305.64, 239.29 304.71 C 238.95 303.77, 238.77 303.43, 238.51 302.96 C 238.26 302.48, 238.18 302.44, 238.00 302.34 C 237.82 302.25, 237.71 302.29, 237.62 302.47" style="stroke: black; fill: black;"/><path d="M 236.75,319.71 C 236.99 319.83, 237.14 319.81, 237.89 319.86 C 238.64 319.91, 239.21 319.97, 240.49 319.97 C 241.78 319.96, 242.67 319.91, 244.31 319.83 C 245.94 319.76, 246.97 319.69, 248.68 319.58 C 250.38 319.47, 251.30 319.38, 252.81 319.29 C 254.33 319.20, 255.13 319.20, 256.27 319.13 C 257.40 319.07, 258.05 319.07, 258.50 318.95 C 258.96 318.83, 258.97 318.70, 258.52 318.53 C 258.08 318.37, 257.44 318.25, 256.29 318.14 C 255.14 318.03, 254.31 317.98, 252.77 317.98 C 251.24 317.98, 250.31 318.09, 248.61 318.15 C 246.90 318.20, 245.87 318.20, 244.24 318.26 C 242.60 318.32, 241.71 318.34, 240.43 318.45 C 239.14 318.56, 238.56 318.63, 237.81 318.80 C 237.06 318.96, 236.90 319.10, 236.69 319.28 C 236.48 319.46, 236.51 319.59, 236.75 319.71" style="stroke: black; fill: black;"/><path d="M 301.60,317.13 C 301.53 316.86, 301.34 316.51, 300.91 316.19 C 300.48 315.87, 300.17 315.66, 299.45 315.54 C 298.73 315.43, 298.18 315.34, 297.29 315.61 C 296.40 315.89, 295.90 316.24, 294.98 316.91 C 294.07 317.58, 293.53 318.08, 292.73 318.97 C 291.92 319.86, 291.47 320.42, 290.97 321.35 C 290.47 322.29, 290.29 322.82, 290.23 323.64 C 290.18 324.47, 290.30 324.88, 290.70 325.48 C 291.10 326.09, 291.48 326.35, 292.23 326.67 C 292.97 326.98, 293.50 327.06, 294.44 327.06 C 295.38 327.07, 295.95 326.99, 296.93 326.71 C 297.90 326.42, 298.43 326.15, 299.33 325.65 C 300.22 325.14, 300.66 324.80, 301.39 324.19 C 302.11 323.57, 302.49 323.15, 302.96 322.55 C 303.42 321.96, 303.54 321.53, 303.70 321.23 C 303.86 320.94, 303.72 320.90, 303.74 321.08 C 303.75 321.25, 303.67 321.58, 303.77 322.12 C 303.87 322.67, 303.94 323.13, 304.24 323.80 C 304.54 324.46, 304.78 324.88, 305.25 325.46 C 305.72 326.05, 306.02 326.33, 306.60 326.73 C 307.18 327.14, 307.53 327.25, 308.14 327.50 C 308.75 327.75, 309.11 327.88, 309.66 327.99 C 310.22 328.10, 310.49 328.10, 310.91 328.06 C 311.33 328.01, 311.59 327.90, 311.76 327.75 C 311.92 327.61, 311.89 327.45, 311.73 327.33 C 311.58 327.20, 311.34 327.21, 310.99 327.11 C 310.63 327.00, 310.44 326.95, 309.97 326.79 C 309.49 326.64, 309.13 326.55, 308.60 326.34 C 308.07 326.14, 307.75 326.10, 307.30 325.77 C 306.85 325.43, 306.67 325.20, 306.35 324.68 C 306.03 324.15, 305.98 323.75, 305.70 323.14 C 305.43 322.54, 305.29 322.14, 304.98 321.65 C 304.67 321.15, 304.51 320.86, 304.15 320.66 C 303.80 320.47, 303.62 320.44, 303.19 320.65 C 302.77 320.86, 302.55 321.20, 302.02 321.71 C 301.49 322.22, 301.22 322.64, 300.55 323.20 C 299.88 323.76, 299.49 324.06, 298.68 324.50 C 297.88 324.94, 297.40 325.15, 296.55 325.40 C 295.70 325.65, 295.20 325.69, 294.41 325.73 C 293.62 325.77, 293.19 325.75, 292.60 325.60 C 292.00 325.44, 291.71 325.34, 291.44 324.97 C 291.16 324.61, 291.09 324.36, 291.22 323.77 C 291.35 323.18, 291.56 322.77, 292.07 322.01 C 292.59 321.25, 293.03 320.75, 293.79 319.96 C 294.55 319.17, 295.07 318.67, 295.86 318.06 C 296.64 317.44, 297.03 317.14, 297.71 316.89 C 298.40 316.63, 298.75 316.75, 299.28 316.80 C 299.81 316.85, 299.97 317.00, 300.36 317.15 C 300.75 317.30, 300.98 317.56, 301.23 317.56 C 301.48 317.55, 301.66 317.40, 301.60 317.13" style="stroke: black; fill: black;"/><path d="M 349.04,317.52 C 348.89 317.32, 348.68 317.19, 348.19 317.03 C 347.69 316.86, 347.31 316.73, 346.57 316.69 C 345.83 316.66, 345.25 316.70, 344.46 316.85 C 343.68 317.00, 343.26 317.14, 342.65 317.45 C 342.04 317.76, 341.71 317.95, 341.42 318.40 C 341.13 318.85, 341.06 319.16, 341.20 319.69 C 341.35 320.22, 341.57 320.51, 342.12 321.05 C 342.68 321.60, 343.12 321.89, 344.00 322.41 C 344.88 322.93, 345.48 323.17, 346.53 323.66 C 347.58 324.14, 348.25 324.37, 349.25 324.83 C 350.24 325.28, 350.78 325.52, 351.51 325.93 C 352.24 326.33, 352.54 326.54, 352.90 326.86 C 353.25 327.18, 353.34 327.31, 353.29 327.54 C 353.24 327.78, 353.08 327.84, 352.64 328.05 C 352.21 328.25, 351.85 328.35, 351.11 328.56 C 350.37 328.78, 349.89 328.92, 348.93 329.11 C 347.97 329.31, 347.38 329.43, 346.31 329.53 C 345.24 329.63, 344.60 329.62, 343.60 329.62 C 342.59 329.62, 342.05 329.62, 341.29 329.53 C 340.53 329.45, 340.25 329.34, 339.81 329.20 C 339.38 329.05, 339.31 328.95, 339.11 328.80 C 338.91 328.65, 338.94 328.49, 338.82 328.45 C 338.70 328.40, 338.56 328.40, 338.52 328.56 C 338.48 328.71, 338.43 328.92, 338.61 329.22 C 338.78 329.52, 338.90 329.77, 339.40 330.06 C 339.90 330.36, 340.27 330.52, 341.10 330.70 C 341.93 330.88, 342.50 330.91, 343.56 330.96 C 344.63 331.01, 345.30 331.03, 346.43 330.95 C 347.56 330.86, 348.19 330.76, 349.22 330.54 C 350.25 330.33, 350.76 330.21, 351.57 329.88 C 352.38 329.56, 352.77 329.37, 353.26 328.92 C 353.74 328.47, 353.93 328.18, 354.00 327.65 C 354.06 327.12, 353.97 326.83, 353.60 326.28 C 353.23 325.73, 352.91 325.45, 352.16 324.91 C 351.41 324.37, 350.85 324.09, 349.86 323.58 C 348.86 323.06, 348.19 322.81, 347.17 322.31 C 346.15 321.81, 345.59 321.55, 344.74 321.10 C 343.90 320.64, 343.49 320.39, 342.93 320.04 C 342.38 319.70, 342.15 319.59, 341.98 319.37 C 341.80 319.15, 341.82 319.09, 342.05 318.94 C 342.27 318.80, 342.56 318.75, 343.09 318.63 C 343.62 318.52, 344.00 318.46, 344.70 318.38 C 345.40 318.30, 345.91 318.28, 346.58 318.23 C 347.25 318.19, 347.57 318.19, 348.05 318.15 C 348.52 318.10, 348.75 318.13, 348.94 318.01 C 349.14 317.88, 349.19 317.72, 349.04 317.52" style="stroke: black; fill: black;"/><path d="M 357.69,320.43 C 357.52 320.59, 357.43 320.80, 357.35 321.25 C 357.27 321.71, 357.24 322.06, 357.30 322.70 C 357.36 323.35, 357.43 323.79, 357.64 324.48 C 357.84 325.16, 358.04 325.55, 358.32 326.15 C 358.60 326.75, 358.75 327.05, 359.06 327.48 C 359.37 327.90, 359.58 328.07, 359.87 328.27 C 360.16 328.47, 360.33 328.47, 360.51 328.47 C 360.70 328.48, 360.75 328.35, 360.79 328.29 C 360.84 328.22, 360.75 328.18, 360.74 328.13 C 360.73 328.09, 360.78 328.15, 360.74 328.04 C 360.71 327.93, 360.71 327.81, 360.57 327.58 C 360.43 327.34, 360.24 327.24, 360.04 326.86 C 359.84 326.47, 359.75 326.20, 359.56 325.64 C 359.37 325.08, 359.25 324.71, 359.10 324.08 C 358.94 323.45, 358.90 323.06, 358.78 322.49 C 358.66 321.91, 358.62 321.61, 358.50 321.20 C 358.38 320.79, 358.35 320.59, 358.19 320.43 C 358.02 320.28, 357.85 320.26, 357.69 320.43" style="stroke: black; fill: black;"/><path d="M 354.48,311.88 C 354.65 311.79, 354.73 311.72, 354.72 311.64 C 354.71 311.55, 354.62 311.50, 354.44 311.45 C 354.26 311.40, 354.01 311.34, 353.82 311.40 C 353.63 311.47, 353.49 311.64, 353.50 311.77 C 353.52 311.90, 353.70 312.03, 353.89 312.06 C 354.09 312.08, 354.32 311.96, 354.48 311.88" style="stroke: black; fill: black;"/><path d="M 366.16,320.72 C 366.07 320.87, 366.07 320.95, 366.10 321.25 C 366.13 321.56, 366.17 321.77, 366.30 322.26 C 366.43 322.74, 366.54 323.06, 366.74 323.68 C 366.93 324.30, 367.02 324.74, 367.27 325.37 C 367.52 326.00, 367.66 326.37, 367.99 326.81 C 368.33 327.25, 368.53 327.43, 368.93 327.58 C 369.33 327.74, 369.56 327.76, 370.00 327.58 C 370.44 327.40, 370.69 327.16, 371.15 326.68 C 371.61 326.19, 371.84 325.82, 372.30 325.15 C 372.76 324.49, 373.00 324.02, 373.46 323.33 C 373.93 322.65, 374.16 322.23, 374.62 321.72 C 375.09 321.21, 375.31 321.00, 375.77 320.78 C 376.24 320.55, 376.47 320.53, 376.93 320.59 C 377.39 320.65, 377.61 320.81, 378.07 321.08 C 378.53 321.34, 378.78 321.55, 379.23 321.93 C 379.68 322.31, 379.89 322.52, 380.33 322.97 C 380.76 323.42, 380.95 323.73, 381.38 324.16 C 381.81 324.60, 382.09 324.83, 382.48 325.14 C 382.87 325.46, 383.01 325.57, 383.32 325.74 C 383.63 325.92, 383.84 326.02, 384.04 326.01 C 384.23 326.00, 384.32 325.87, 384.30 325.68 C 384.27 325.50, 384.11 325.36, 383.92 325.08 C 383.72 324.80, 383.63 324.64, 383.31 324.28 C 382.99 323.91, 382.73 323.70, 382.32 323.26 C 381.91 322.81, 381.70 322.53, 381.25 322.07 C 380.79 321.61, 380.55 321.35, 380.03 320.94 C 379.50 320.53, 379.22 320.29, 378.62 320.01 C 378.02 319.73, 377.68 319.58, 377.02 319.54 C 376.37 319.50, 376.01 319.55, 375.35 319.80 C 374.70 320.06, 374.36 320.29, 373.75 320.82 C 373.14 321.36, 372.84 321.78, 372.29 322.47 C 371.75 323.17, 371.47 323.61, 371.02 324.28 C 370.56 324.95, 370.34 325.31, 370.03 325.82 C 369.73 326.33, 369.64 326.61, 369.49 326.84 C 369.34 327.07, 369.36 327.07, 369.27 326.96 C 369.18 326.84, 369.14 326.67, 369.03 326.26 C 368.91 325.85, 368.83 325.53, 368.68 324.91 C 368.53 324.30, 368.48 323.84, 368.28 323.21 C 368.09 322.57, 367.96 322.20, 367.71 321.72 C 367.47 321.24, 367.30 321.04, 367.06 320.79 C 366.83 320.55, 366.72 320.52, 366.54 320.50 C 366.36 320.49, 366.25 320.57, 366.16 320.72" style="stroke: black; fill: black;"/><path d="M 394.24,319.98 C 394.12 319.78, 393.92 319.64, 393.51 319.53 C 393.09 319.42, 392.76 319.32, 392.18 319.43 C 391.59 319.54, 391.17 319.70, 390.58 320.09 C 389.99 320.47, 389.68 320.80, 389.23 321.35 C 388.79 321.90, 388.57 322.28, 388.37 322.86 C 388.17 323.44, 388.14 323.77, 388.24 324.26 C 388.35 324.76, 388.50 325.01, 388.89 325.33 C 389.27 325.66, 389.58 325.81, 390.17 325.90 C 390.77 326.00, 391.17 325.96, 391.87 325.81 C 392.58 325.66, 393.00 325.49, 393.70 325.17 C 394.40 324.86, 394.77 324.59, 395.36 324.26 C 395.96 323.92, 396.25 323.66, 396.68 323.49 C 397.11 323.32, 397.25 323.27, 397.52 323.42 C 397.79 323.58, 397.81 323.75, 398.05 324.26 C 398.29 324.78, 398.40 325.16, 398.71 325.99 C 399.03 326.82, 399.24 327.40, 399.64 328.43 C 400.04 329.45, 400.28 330.06, 400.71 331.13 C 401.13 332.20, 401.40 332.79, 401.78 333.78 C 402.15 334.76, 402.37 335.26, 402.58 336.06 C 402.80 336.87, 402.86 337.19, 402.85 337.80 C 402.85 338.40, 402.79 338.69, 402.57 339.09 C 402.35 339.50, 402.19 339.60, 401.75 339.83 C 401.31 340.06, 401.05 340.17, 400.37 340.25 C 399.68 340.32, 399.24 340.31, 398.32 340.21 C 397.40 340.11, 396.82 340.00, 395.75 339.75 C 394.67 339.49, 394.01 339.28, 392.94 338.94 C 391.88 338.61, 391.29 338.43, 390.43 338.06 C 389.58 337.69, 389.16 337.51, 388.66 337.09 C 388.16 336.67, 388.05 336.49, 387.92 335.97 C 387.80 335.44, 387.80 335.13, 388.03 334.45 C 388.26 333.76, 388.48 333.39, 389.07 332.55 C 389.66 331.71, 390.06 331.19, 390.98 330.24 C 391.90 329.28, 392.49 328.80, 393.68 327.79 C 394.87 326.79, 395.58 326.25, 396.93 325.21 C 398.29 324.16, 399.08 323.60, 400.45 322.57 C 401.82 321.53, 402.57 321.04, 403.77 320.02 C 404.98 319.00, 405.55 318.46, 406.48 317.46 C 407.40 316.46, 407.82 315.93, 408.39 315.03 C 408.96 314.13, 409.14 313.69, 409.32 312.95 C 409.50 312.20, 409.46 311.76, 409.29 311.32 C 409.12 310.87, 408.85 310.67, 408.46 310.72 C 408.06 310.76, 407.67 310.99, 407.32 311.56 C 406.96 312.13, 406.81 312.65, 406.68 313.58 C 406.54 314.51, 406.53 315.14, 406.63 316.23 C 406.73 317.33, 406.81 317.97, 407.17 319.05 C 407.53 320.12, 407.80 320.65, 408.42 321.60 C 409.04 322.54, 409.46 323.00, 410.27 323.77 C 411.09 324.54, 411.53 324.91, 412.47 325.45 C 413.41 325.98, 413.95 326.18, 414.97 326.44 C 416.00 326.71, 416.57 326.76, 417.61 326.76 C 418.66 326.75, 419.18 326.67, 420.20 326.43 C 421.22 326.18, 421.75 325.97, 422.72 325.51 C 423.70 325.06, 424.25 324.76, 425.07 324.15 C 425.90 323.53, 426.32 323.15, 426.85 322.44 C 427.38 321.73, 427.58 321.29, 427.72 320.61 C 427.87 319.93, 427.82 319.57, 427.57 319.03 C 427.31 318.50, 427.04 318.22, 426.46 317.94 C 425.88 317.66, 425.42 317.56, 424.69 317.64 C 423.95 317.71, 423.47 317.87, 422.80 318.31 C 422.13 318.75, 421.76 319.14, 421.35 319.82 C 420.94 320.51, 420.74 320.98, 420.75 321.72 C 420.75 322.47, 420.85 322.87, 421.37 323.56 C 421.88 324.24, 422.34 324.64, 423.33 325.16 C 424.32 325.68, 425.00 325.89, 426.31 326.16 C 427.63 326.44, 428.39 326.43, 429.88 326.52 C 431.37 326.61, 432.25 326.64, 433.76 326.59 C 435.27 326.54, 436.09 326.47, 437.45 326.27 C 438.80 326.08, 439.51 325.89, 440.53 325.61 C 441.55 325.34, 441.94 325.17, 442.56 324.89 C 443.19 324.61, 443.47 324.41, 443.66 324.20 C 443.86 324.00, 443.80 323.89, 443.53 323.87 C 443.26 323.85, 442.96 323.98, 442.31 324.10 C 441.66 324.23, 441.28 324.30, 440.28 324.48 C 439.27 324.66, 438.59 324.85, 437.28 325.00 C 435.97 325.15, 435.19 325.21, 433.73 325.24 C 432.27 325.26, 431.39 325.22, 429.97 325.13 C 428.54 325.03, 427.80 325.02, 426.59 324.78 C 425.38 324.55, 424.79 324.34, 423.92 323.95 C 423.04 323.57, 422.64 323.29, 422.21 322.85 C 421.79 322.41, 421.74 322.22, 421.78 321.75 C 421.82 321.29, 422.06 321.00, 422.42 320.54 C 422.77 320.08, 423.05 319.77, 423.54 319.44 C 424.03 319.12, 424.36 319.01, 424.87 318.91 C 425.37 318.81, 425.69 318.83, 426.07 318.93 C 426.45 319.03, 426.64 319.13, 426.78 319.41 C 426.92 319.69, 426.93 319.89, 426.76 320.34 C 426.59 320.80, 426.41 321.14, 425.92 321.69 C 425.43 322.24, 425.06 322.57, 424.31 323.11 C 423.56 323.64, 423.06 323.93, 422.18 324.35 C 421.29 324.78, 420.82 325.00, 419.90 325.24 C 418.99 325.48, 418.53 325.55, 417.61 325.55 C 416.68 325.56, 416.18 325.51, 415.27 325.28 C 414.37 325.05, 413.91 324.88, 413.08 324.40 C 412.25 323.92, 411.85 323.57, 411.13 322.88 C 410.41 322.18, 410.01 321.76, 409.47 320.92 C 408.93 320.07, 408.70 319.61, 408.43 318.65 C 408.15 317.70, 408.14 317.11, 408.10 316.13 C 408.06 315.15, 408.15 314.59, 408.22 313.76 C 408.29 312.94, 408.36 312.53, 408.44 312.01 C 408.52 311.50, 408.61 311.29, 408.64 311.18 C 408.67 311.06, 408.65 311.13, 408.59 311.43 C 408.53 311.72, 408.58 312.06, 408.35 312.66 C 408.13 313.26, 408.02 313.63, 407.47 314.43 C 406.92 315.23, 406.52 315.72, 405.62 316.64 C 404.72 317.57, 404.17 318.09, 402.97 319.06 C 401.78 320.04, 401.04 320.50, 399.66 321.51 C 398.29 322.52, 397.48 323.08, 396.10 324.13 C 394.73 325.18, 394.02 325.71, 392.79 326.74 C 391.57 327.77, 390.95 328.26, 389.98 329.27 C 389.01 330.28, 388.56 330.83, 387.95 331.81 C 387.34 332.79, 387.13 333.28, 386.94 334.15 C 386.75 335.03, 386.80 335.47, 387.01 336.21 C 387.21 336.94, 387.39 337.24, 387.97 337.83 C 388.55 338.43, 388.99 338.69, 389.89 339.18 C 390.80 339.66, 391.40 339.86, 392.50 340.25 C 393.61 340.64, 394.28 340.87, 395.42 341.14 C 396.56 341.41, 397.17 341.53, 398.20 341.59 C 399.23 341.66, 399.75 341.64, 400.57 341.47 C 401.39 341.30, 401.73 341.12, 402.30 340.73 C 402.87 340.35, 403.10 340.13, 403.42 339.56 C 403.74 338.98, 403.83 338.60, 403.89 337.85 C 403.94 337.10, 403.88 336.71, 403.71 335.81 C 403.53 334.91, 403.34 334.38, 403.00 333.35 C 402.66 332.31, 402.40 331.73, 402.01 330.64 C 401.61 329.55, 401.42 328.94, 401.02 327.89 C 400.63 326.85, 400.43 326.27, 400.03 325.43 C 399.63 324.58, 399.44 324.23, 399.01 323.67 C 398.59 323.11, 398.44 322.89, 397.92 322.64 C 397.40 322.39, 397.06 322.34, 396.43 322.42 C 395.80 322.50, 395.42 322.75, 394.76 323.04 C 394.10 323.33, 393.77 323.59, 393.13 323.86 C 392.48 324.14, 392.12 324.27, 391.54 324.43 C 390.97 324.59, 390.67 324.64, 390.25 324.67 C 389.83 324.70, 389.65 324.68, 389.43 324.57 C 389.21 324.47, 389.14 324.39, 389.15 324.14 C 389.16 323.90, 389.24 323.73, 389.47 323.36 C 389.71 322.98, 389.93 322.68, 390.31 322.27 C 390.70 321.86, 390.95 321.61, 391.39 321.30 C 391.83 321.00, 392.10 320.90, 392.51 320.77 C 392.91 320.63, 393.09 320.70, 393.42 320.65 C 393.75 320.59, 393.97 320.63, 394.14 320.50 C 394.30 320.36, 394.37 320.17, 394.24 319.98" style="stroke: black; fill: black;"/><path d="M 474.15,307.32 C 474.00 307.51, 473.92 307.70, 473.86 308.29 C 473.81 308.87, 473.76 309.25, 473.88 310.26 C 474.00 311.26, 474.14 312.07, 474.46 313.30 C 474.78 314.54, 475.05 315.23, 475.48 316.43 C 475.92 317.64, 476.19 318.27, 476.63 319.33 C 477.07 320.38, 477.30 320.88, 477.69 321.71 C 478.07 322.53, 478.27 322.88, 478.56 323.43 C 478.84 323.99, 479.00 324.20, 479.12 324.46 C 479.23 324.73, 479.23 324.75, 479.14 324.77 C 479.05 324.79, 478.99 324.73, 478.68 324.56 C 478.37 324.38, 478.18 324.22, 477.61 323.89 C 477.05 323.56, 476.61 323.33, 475.84 322.91 C 475.08 322.49, 474.59 322.21, 473.81 321.81 C 473.03 321.41, 472.60 321.21, 471.94 320.92 C 471.28 320.62, 470.99 320.47, 470.51 320.33 C 470.03 320.19, 469.80 320.13, 469.56 320.22 C 469.32 320.30, 469.19 320.52, 469.29 320.77 C 469.40 321.01, 469.56 321.26, 470.08 321.44 C 470.60 321.63, 471.05 321.64, 471.91 321.68 C 472.77 321.72, 473.29 321.73, 474.39 321.66 C 475.49 321.59, 476.21 321.52, 477.41 321.35 C 478.60 321.18, 479.25 321.06, 480.37 320.79 C 481.49 320.52, 482.05 320.39, 483.01 320.02 C 483.97 319.66, 484.42 319.45, 485.17 318.97 C 485.93 318.48, 486.28 318.19, 486.79 317.59 C 487.31 316.99, 487.49 316.66, 487.74 315.96 C 488.00 315.27, 488.04 314.86, 488.06 314.13 C 488.08 313.39, 488.01 312.99, 487.85 312.29 C 487.70 311.60, 487.52 311.23, 487.28 310.66 C 487.05 310.09, 486.93 309.82, 486.67 309.43 C 486.41 309.04, 486.28 308.86, 485.99 308.73 C 485.70 308.59, 485.44 308.53, 485.22 308.75 C 485.00 308.97, 484.90 309.19, 484.88 309.83 C 484.86 310.46, 484.94 310.92, 485.12 311.93 C 485.29 312.93, 485.42 313.63, 485.74 314.87 C 486.06 316.10, 486.30 316.87, 486.72 318.11 C 487.14 319.34, 487.40 319.99, 487.85 321.04 C 488.31 322.09, 488.54 322.59, 489.00 323.36 C 489.45 324.12, 489.68 324.41, 490.13 324.86 C 490.57 325.31, 490.77 325.48, 491.21 325.62 C 491.66 325.75, 491.92 325.72, 492.37 325.53 C 492.81 325.34, 493.05 325.12, 493.44 324.65 C 493.83 324.18, 494.03 323.79, 494.33 323.18 C 494.64 322.57, 494.74 322.12, 494.97 321.59 C 495.19 321.07, 495.26 320.81, 495.46 320.56 C 495.67 320.30, 495.74 320.24, 496.00 320.33 C 496.25 320.42, 496.37 320.64, 496.75 321.01 C 497.13 321.38, 497.38 321.69, 497.92 322.18 C 498.46 322.67, 498.77 322.98, 499.45 323.48 C 500.13 323.97, 500.56 324.25, 501.30 324.64 C 502.04 325.03, 502.42 325.19, 503.15 325.43 C 503.88 325.66, 504.22 325.74, 504.93 325.82 C 505.65 325.90, 506.01 325.91, 506.72 325.82 C 507.43 325.74, 507.83 325.65, 508.49 325.38 C 509.15 325.10, 509.48 324.86, 510.02 324.45 C 510.57 324.03, 510.89 323.85, 511.23 323.31 C 511.56 322.76, 511.72 322.08, 511.71 321.70 C 511.69 321.33, 511.44 321.25, 511.16 321.43 C 510.87 321.62, 510.66 322.21, 510.29 322.62 C 509.92 323.02, 509.77 323.15, 509.31 323.47 C 508.85 323.79, 508.55 323.99, 508.00 324.22 C 507.45 324.46, 507.15 324.56, 506.56 324.65 C 505.97 324.74, 505.67 324.75, 505.06 324.68 C 504.46 324.61, 504.17 324.54, 503.54 324.30 C 502.92 324.06, 502.60 323.88, 501.95 323.49 C 501.30 323.10, 500.92 322.82, 500.30 322.34 C 499.68 321.87, 499.42 321.58, 498.86 321.11 C 498.30 320.64, 498.05 320.33, 497.51 320.00 C 496.96 319.67, 496.67 319.50, 496.14 319.46 C 495.61 319.41, 495.34 319.50, 494.86 319.79 C 494.38 320.08, 494.15 320.35, 493.76 320.89 C 493.37 321.43, 493.20 321.89, 492.92 322.49 C 492.63 323.10, 492.53 323.48, 492.32 323.94 C 492.12 324.40, 492.07 324.60, 491.90 324.79 C 491.73 324.99, 491.68 325.03, 491.47 324.92 C 491.26 324.81, 491.15 324.66, 490.85 324.24 C 490.56 323.82, 490.34 323.55, 489.98 322.82 C 489.61 322.08, 489.41 321.60, 489.03 320.57 C 488.65 319.54, 488.42 318.90, 488.07 317.68 C 487.72 316.47, 487.55 315.71, 487.27 314.50 C 487.00 313.28, 486.93 312.58, 486.71 311.61 C 486.49 310.63, 486.37 310.17, 486.16 309.62 C 485.95 309.07, 485.80 308.95, 485.66 308.86 C 485.52 308.77, 485.45 308.94, 485.44 309.16 C 485.44 309.38, 485.50 309.56, 485.63 309.95 C 485.77 310.34, 485.91 310.59, 486.10 311.12 C 486.29 311.65, 486.45 311.99, 486.60 312.59 C 486.75 313.19, 486.84 313.52, 486.86 314.13 C 486.88 314.73, 486.88 315.06, 486.71 315.61 C 486.53 316.16, 486.40 316.40, 485.98 316.88 C 485.55 317.36, 485.25 317.60, 484.58 318.01 C 483.90 318.41, 483.50 318.60, 482.61 318.90 C 481.71 319.20, 481.17 319.31, 480.09 319.51 C 479.02 319.72, 478.38 319.80, 477.23 319.93 C 476.07 320.05, 475.38 320.10, 474.32 320.13 C 473.27 320.16, 472.77 320.08, 471.95 320.08 C 471.13 320.08, 470.74 320.08, 470.24 320.13 C 469.75 320.19, 469.65 320.23, 469.48 320.35 C 469.32 320.47, 469.29 320.54, 469.41 320.73 C 469.53 320.93, 469.67 321.05, 470.06 321.31 C 470.45 321.57, 470.76 321.68, 471.37 322.03 C 471.98 322.38, 472.36 322.62, 473.10 323.07 C 473.84 323.53, 474.30 323.87, 475.08 324.30 C 475.85 324.73, 476.30 324.98, 476.98 325.24 C 477.65 325.50, 477.95 325.58, 478.45 325.58 C 478.96 325.59, 479.20 325.50, 479.49 325.25 C 479.78 325.00, 479.88 324.79, 479.89 324.34 C 479.89 323.89, 479.74 323.63, 479.51 323.01 C 479.28 322.39, 479.08 322.07, 478.74 321.24 C 478.40 320.41, 478.19 319.92, 477.80 318.87 C 477.42 317.82, 477.18 317.18, 476.82 315.99 C 476.46 314.80, 476.29 314.11, 476.00 312.91 C 475.71 311.72, 475.60 310.94, 475.38 309.99 C 475.16 309.05, 475.05 308.73, 474.89 308.19 C 474.73 307.66, 474.75 307.49, 474.60 307.32 C 474.46 307.14, 474.30 307.12, 474.15 307.32" style="stroke: black; fill: black;"/><path d="M 515.46,316.96 C 515.33 316.82, 515.20 316.74, 514.88 316.74 C 514.55 316.74, 514.29 316.74, 513.82 316.96 C 513.35 317.18, 513.01 317.36, 512.54 317.84 C 512.06 318.31, 511.83 318.71, 511.45 319.35 C 511.08 320.00, 510.84 320.36, 510.67 321.07 C 510.49 321.77, 510.46 322.20, 510.57 322.87 C 510.68 323.55, 510.83 323.89, 511.22 324.44 C 511.62 324.99, 511.91 325.26, 512.54 325.61 C 513.17 325.95, 513.61 326.05, 514.38 326.16 C 515.16 326.26, 515.63 326.25, 516.42 326.12 C 517.22 325.99, 517.67 325.85, 518.36 325.52 C 519.04 325.20, 519.37 324.97, 519.84 324.50 C 520.31 324.03, 520.49 323.77, 520.70 323.19 C 520.91 322.61, 520.97 322.23, 520.89 321.58 C 520.81 320.94, 520.67 320.56, 520.30 319.98 C 519.93 319.39, 519.61 319.11, 519.04 318.65 C 518.47 318.20, 518.14 317.91, 517.47 317.70 C 516.79 317.48, 516.27 317.49, 515.67 317.58 C 515.08 317.67, 514.82 317.88, 514.50 318.16 C 514.17 318.44, 514.07 318.75, 514.05 318.97 C 514.02 319.20, 514.18 319.28, 514.37 319.26 C 514.55 319.25, 514.69 319.02, 514.97 318.92 C 515.25 318.82, 515.37 318.75, 515.78 318.76 C 516.20 318.76, 516.56 318.74, 517.04 318.93 C 517.53 319.11, 517.77 319.33, 518.21 319.68 C 518.65 320.03, 518.94 320.28, 519.25 320.69 C 519.56 321.11, 519.67 321.34, 519.76 321.77 C 519.85 322.20, 519.85 322.46, 519.71 322.84 C 519.58 323.22, 519.47 323.38, 519.10 323.68 C 518.72 323.99, 518.43 324.13, 517.85 324.36 C 517.28 324.58, 516.88 324.70, 516.22 324.79 C 515.55 324.89, 515.15 324.91, 514.53 324.85 C 513.90 324.80, 513.56 324.75, 513.08 324.53 C 512.60 324.32, 512.39 324.14, 512.12 323.78 C 511.84 323.42, 511.74 323.18, 511.69 322.72 C 511.65 322.25, 511.69 321.96, 511.89 321.45 C 512.09 320.93, 512.35 320.64, 512.69 320.13 C 513.04 319.62, 513.26 319.28, 513.63 318.89 C 513.99 318.50, 514.22 318.41, 514.53 318.19 C 514.83 317.96, 514.97 317.91, 515.17 317.76 C 515.37 317.61, 515.46 317.58, 515.52 317.42 C 515.57 317.26, 515.59 317.09, 515.46 316.96" style="stroke: black; fill: black;"/><path d="M 525.11,317.66 C 524.98 317.63, 524.80 317.59, 524.62 317.78 C 524.44 317.98, 524.27 318.15, 524.19 318.64 C 524.12 319.12, 524.10 319.53, 524.25 320.23 C 524.40 320.93, 524.54 321.40, 524.95 322.13 C 525.36 322.86, 525.64 323.28, 526.29 323.87 C 526.93 324.46, 527.35 324.72, 528.16 325.08 C 528.97 325.44, 529.45 325.57, 530.32 325.68 C 531.19 325.78, 531.67 325.75, 532.51 325.61 C 533.35 325.47, 533.81 325.34, 534.54 324.98 C 535.28 324.62, 535.64 324.37, 536.20 323.81 C 536.76 323.24, 537.01 322.85, 537.37 322.15 C 537.72 321.46, 537.87 321.01, 537.96 320.35 C 538.04 319.68, 537.95 319.23, 537.79 318.84 C 537.63 318.44, 537.36 318.30, 537.16 318.37 C 536.96 318.44, 536.79 318.69, 536.78 319.19 C 536.78 319.69, 536.80 320.15, 537.13 320.87 C 537.47 321.60, 537.83 322.09, 538.46 322.80 C 539.09 323.51, 539.53 323.84, 540.27 324.43 C 541.02 325.01, 541.38 325.28, 542.18 325.73 C 542.97 326.19, 543.49 326.38, 544.25 326.71 C 545.01 327.03, 545.40 327.19, 545.99 327.38 C 546.58 327.57, 546.82 327.60, 547.20 327.67 C 547.59 327.74, 547.68 327.75, 547.91 327.73 C 548.14 327.71, 548.24 327.68, 548.37 327.58 C 548.50 327.48, 548.61 327.37, 548.58 327.25 C 548.54 327.13, 548.30 327.00, 548.20 326.98 C 548.10 326.95, 548.10 327.11, 548.06 327.13 C 548.02 327.16, 548.11 327.17, 548.00 327.10 C 547.89 327.04, 547.81 326.96, 547.49 326.79 C 547.18 326.63, 546.96 326.55, 546.41 326.30 C 545.87 326.04, 545.49 325.86, 544.77 325.53 C 544.05 325.20, 543.54 325.06, 542.81 324.63 C 542.09 324.21, 541.76 323.97, 541.13 323.41 C 540.49 322.84, 540.17 322.46, 539.65 321.80 C 539.13 321.14, 538.90 320.71, 538.54 320.12 C 538.18 319.54, 538.09 319.22, 537.83 318.87 C 537.57 318.52, 537.45 318.37, 537.25 318.38 C 537.05 318.38, 536.96 318.54, 536.84 318.89 C 536.73 319.24, 536.79 319.58, 536.67 320.13 C 536.55 320.67, 536.51 321.03, 536.24 321.60 C 535.98 322.17, 535.79 322.52, 535.35 322.98 C 534.91 323.44, 534.64 323.62, 534.03 323.90 C 533.43 324.18, 533.03 324.28, 532.32 324.38 C 531.60 324.49, 531.20 324.53, 530.47 324.44 C 529.75 324.35, 529.34 324.23, 528.68 323.93 C 528.02 323.63, 527.67 323.43, 527.19 322.94 C 526.70 322.44, 526.52 322.08, 526.25 321.48 C 525.98 320.87, 525.96 320.48, 525.85 319.90 C 525.74 319.33, 525.81 318.99, 525.72 318.61 C 525.63 318.23, 525.50 318.14, 525.41 318.01 C 525.32 317.87, 525.33 318.01, 525.27 317.94 C 525.21 317.87, 525.24 317.69, 525.11 317.66" style="stroke: black; fill: black;"/><path d="M 556.20,321.23 C 556.19 320.98, 556.07 320.70, 555.77 320.35 C 555.46 320.00, 555.23 319.76, 554.69 319.47 C 554.14 319.19, 553.71 319.02, 553.03 318.92 C 552.35 318.82, 551.94 318.85, 551.28 318.97 C 550.62 319.09, 550.27 319.22, 549.72 319.51 C 549.17 319.80, 548.86 319.99, 548.55 320.42 C 548.24 320.86, 548.16 321.19, 548.18 321.70 C 548.21 322.20, 548.32 322.51, 548.67 322.96 C 549.02 323.40, 549.32 323.63, 549.94 323.91 C 550.57 324.19, 551.03 324.28, 551.79 324.36 C 552.56 324.44, 552.99 324.37, 553.76 324.31 C 554.53 324.25, 554.94 324.16, 555.63 324.05 C 556.32 323.94, 556.72 323.86, 557.22 323.78 C 557.72 323.71, 557.89 323.59, 558.15 323.68 C 558.42 323.76, 558.41 323.83, 558.54 324.19 C 558.66 324.56, 558.69 324.87, 558.79 325.52 C 558.89 326.17, 558.92 326.60, 559.05 327.47 C 559.18 328.33, 559.26 328.88, 559.43 329.84 C 559.60 330.80, 559.72 331.33, 559.90 332.27 C 560.09 333.21, 560.23 333.73, 560.35 334.56 C 560.46 335.39, 560.50 335.76, 560.49 336.41 C 560.48 337.05, 560.47 337.33, 560.30 337.77 C 560.13 338.21, 560.01 338.35, 559.64 338.60 C 559.27 338.86, 559.00 338.90, 558.46 339.03 C 557.93 339.15, 557.60 339.19, 556.97 339.22 C 556.33 339.24, 555.95 339.24, 555.28 339.15 C 554.61 339.06, 554.25 339.00, 553.62 338.77 C 552.98 338.55, 552.61 338.42, 552.11 338.04 C 551.60 337.66, 551.36 337.43, 551.08 336.88 C 550.81 336.32, 550.71 336.02, 550.73 335.26 C 550.74 334.51, 550.83 334.07, 551.17 333.09 C 551.51 332.11, 551.90 331.43, 552.43 330.36 C 552.96 329.29, 553.34 328.68, 553.84 327.74 C 554.34 326.80, 554.79 326.15, 554.93 325.68 C 555.07 325.21, 554.94 325.10, 554.52 325.38 C 554.10 325.66, 553.50 326.21, 552.82 327.07 C 552.14 327.93, 551.70 328.56, 551.11 329.68 C 550.51 330.80, 550.16 331.56, 549.84 332.68 C 549.53 333.80, 549.50 334.34, 549.55 335.28 C 549.59 336.22, 549.70 336.64, 550.06 337.38 C 550.43 338.12, 550.74 338.47, 551.36 338.99 C 551.98 339.50, 552.43 339.67, 553.17 339.96 C 553.92 340.26, 554.32 340.33, 555.10 340.45 C 555.87 340.56, 556.29 340.59, 557.04 340.54 C 557.78 340.49, 558.15 340.42, 558.80 340.20 C 559.45 339.98, 559.80 339.84, 560.28 339.43 C 560.77 339.03, 560.96 338.75, 561.22 338.16 C 561.48 337.56, 561.53 337.22, 561.60 336.47 C 561.67 335.72, 561.66 335.31, 561.58 334.42 C 561.51 333.53, 561.37 333.00, 561.22 332.04 C 561.06 331.07, 560.95 330.57, 560.81 329.61 C 560.67 328.66, 560.64 328.12, 560.50 327.24 C 560.36 326.36, 560.33 325.92, 560.11 325.21 C 559.90 324.50, 559.75 324.17, 559.43 323.71 C 559.10 323.24, 558.93 323.11, 558.48 322.89 C 558.03 322.68, 557.78 322.66, 557.17 322.63 C 556.57 322.59, 556.17 322.67, 555.47 322.73 C 554.77 322.80, 554.37 322.91, 553.66 322.95 C 552.96 323.00, 552.58 323.01, 551.94 322.95 C 551.29 322.89, 550.92 322.79, 550.43 322.64 C 549.94 322.49, 549.73 322.40, 549.47 322.19 C 549.21 321.99, 549.15 321.86, 549.12 321.63 C 549.10 321.41, 549.12 321.29, 549.35 321.09 C 549.57 320.88, 549.82 320.79, 550.24 320.63 C 550.67 320.46, 550.97 320.32, 551.48 320.26 C 551.99 320.20, 552.28 320.22, 552.80 320.32 C 553.32 320.42, 553.64 320.57, 554.09 320.75 C 554.54 320.93, 554.70 321.07, 555.05 321.24 C 555.39 321.41, 555.58 321.61, 555.81 321.61 C 556.04 321.61, 556.21 321.48, 556.20 321.23" style="stroke: black; fill: black;"/><path d="M 563.23,311.77 C 563.11 311.99, 563.11 312.25, 563.10 312.77 C 563.10 313.29, 563.10 313.63, 563.22 314.38 C 563.33 315.13, 563.41 315.69, 563.67 316.53 C 563.94 317.38, 564.17 317.88, 564.55 318.61 C 564.92 319.35, 565.12 319.66, 565.55 320.22 C 565.97 320.78, 566.19 321.03, 566.67 321.40 C 567.14 321.76, 567.40 321.91, 567.90 322.05 C 568.40 322.19, 568.67 322.17, 569.16 322.11 C 569.65 322.05, 569.87 321.93, 570.34 321.73 C 570.81 321.53, 571.01 321.38, 571.50 321.11 C 572.00 320.84, 572.32 320.69, 572.82 320.39 C 573.32 320.09, 573.61 319.85, 574.00 319.60 C 574.40 319.36, 574.50 319.21, 574.79 319.17 C 575.08 319.13, 575.22 319.21, 575.47 319.40 C 575.72 319.59, 575.82 319.73, 576.05 320.11 C 576.28 320.48, 576.30 320.78, 576.61 321.29 C 576.92 321.80, 577.14 322.14, 577.59 322.66 C 578.04 323.17, 578.32 323.47, 578.86 323.86 C 579.40 324.24, 579.73 324.37, 580.29 324.59 C 580.86 324.80, 581.20 324.90, 581.68 324.93 C 582.17 324.96, 582.49 324.87, 582.70 324.74 C 582.91 324.61, 582.90 324.44, 582.74 324.28 C 582.59 324.11, 582.31 324.07, 581.91 323.90 C 581.52 323.74, 581.23 323.65, 580.77 323.44 C 580.31 323.22, 580.05 323.17, 579.63 322.83 C 579.20 322.50, 579.02 322.21, 578.64 321.76 C 578.27 321.30, 578.07 321.04, 577.75 320.56 C 577.43 320.09, 577.39 319.80, 577.04 319.39 C 576.70 318.97, 576.48 318.73, 576.02 318.49 C 575.56 318.25, 575.25 318.17, 574.74 318.17 C 574.23 318.17, 574.00 318.29, 573.47 318.48 C 572.94 318.68, 572.64 318.86, 572.10 319.15 C 571.57 319.44, 571.27 319.64, 570.81 319.95 C 570.35 320.25, 570.17 320.44, 569.80 320.67 C 569.44 320.89, 569.30 320.99, 568.98 321.07 C 568.65 321.15, 568.51 321.17, 568.19 321.07 C 567.86 320.97, 567.68 320.88, 567.34 320.57 C 567.00 320.27, 566.80 320.06, 566.49 319.56 C 566.17 319.06, 566.03 318.76, 565.76 318.07 C 565.49 317.38, 565.37 316.89, 565.15 316.10 C 564.93 315.30, 564.85 314.79, 564.66 314.08 C 564.47 313.38, 564.39 313.05, 564.21 312.57 C 564.02 312.09, 563.93 311.84, 563.73 311.68 C 563.54 311.52, 563.36 311.55, 563.23 311.77" style="stroke: black; fill: black;"/><path d="M 588.32,311.22 C 588.19 311.47, 588.11 311.73, 588.12 312.42 C 588.14 313.11, 588.18 313.66, 588.39 314.67 C 588.60 315.67, 588.84 316.36, 589.16 317.44 C 589.48 318.53, 589.67 319.14, 590.01 320.10 C 590.34 321.05, 590.58 321.51, 590.84 322.24 C 591.09 322.96, 591.16 323.20, 591.29 323.73 C 591.41 324.25, 591.40 324.46, 591.46 324.85 C 591.51 325.24, 591.45 325.50, 591.56 325.67 C 591.66 325.85, 591.83 325.89, 591.98 325.73 C 592.14 325.56, 592.26 325.29, 592.31 324.85 C 592.37 324.42, 592.35 324.13, 592.27 323.54 C 592.19 322.96, 592.11 322.68, 591.91 321.91 C 591.72 321.14, 591.53 320.68, 591.28 319.71 C 591.03 318.73, 590.93 318.12, 590.65 317.03 C 590.37 315.95, 590.18 315.25, 589.90 314.29 C 589.62 313.33, 589.46 312.85, 589.23 312.22 C 589.01 311.60, 588.97 311.37, 588.79 311.17 C 588.61 310.97, 588.45 310.97, 588.32 311.22" style="stroke: black; fill: black;"/><path d="M 583.40,320.29 C 583.58 320.42, 583.73 320.44, 584.24 320.51 C 584.75 320.59, 585.08 320.62, 585.96 320.67 C 586.84 320.72, 587.42 320.73, 588.64 320.77 C 589.85 320.82, 590.65 320.87, 592.03 320.92 C 593.40 320.97, 594.22 321.00, 595.51 321.03 C 596.79 321.05, 597.45 321.06, 598.45 321.04 C 599.45 321.03, 600.08 321.07, 600.50 320.97 C 600.92 320.86, 600.94 320.72, 600.55 320.52 C 600.15 320.33, 599.53 320.18, 598.54 320.01 C 597.54 319.83, 596.87 319.78, 595.58 319.66 C 594.30 319.54, 593.48 319.51, 592.10 319.43 C 590.73 319.34, 589.92 319.26, 588.69 319.22 C 587.47 319.18, 586.86 319.17, 585.96 319.22 C 585.06 319.27, 584.71 319.35, 584.19 319.47 C 583.67 319.59, 583.52 319.67, 583.37 319.84 C 583.21 320.00, 583.23 320.15, 583.40 320.29" style="stroke: black; fill: black;"/><path d="M 630.52,308.55 C 630.39 308.76, 630.35 308.94, 630.31 309.54 C 630.27 310.14, 630.24 310.56, 630.34 311.55 C 630.43 312.54, 630.57 313.25, 630.78 314.47 C 631.00 315.70, 631.13 316.41, 631.42 317.66 C 631.71 318.90, 631.88 319.63, 632.24 320.70 C 632.59 321.78, 632.81 322.25, 633.21 323.03 C 633.61 323.81, 633.81 324.12, 634.23 324.62 C 634.65 325.12, 634.86 325.32, 635.31 325.53 C 635.76 325.74, 636.04 325.76, 636.46 325.66 C 636.89 325.56, 637.09 325.37, 637.44 325.03 C 637.78 324.68, 637.89 324.43, 638.19 323.93 C 638.49 323.42, 638.62 323.10, 638.96 322.52 C 639.29 321.93, 639.45 321.55, 639.88 321.00 C 640.30 320.46, 640.54 320.17, 641.08 319.79 C 641.61 319.41, 641.93 319.26, 642.56 319.10 C 643.18 318.93, 643.52 318.89, 644.20 318.95 C 644.87 319.01, 645.29 319.15, 645.94 319.42 C 646.60 319.68, 646.92 319.88, 647.47 320.29 C 648.02 320.71, 648.33 320.97, 648.69 321.48 C 649.05 321.99, 649.17 322.35, 649.26 322.84 C 649.35 323.32, 649.37 323.52, 649.15 323.91 C 648.93 324.31, 648.71 324.48, 648.15 324.83 C 647.59 325.17, 647.19 325.35, 646.36 325.64 C 645.53 325.93, 645.01 326.05, 644.00 326.30 C 642.98 326.54, 642.35 326.68, 641.30 326.88 C 640.25 327.07, 639.70 327.18, 638.74 327.26 C 637.77 327.34, 637.24 327.28, 636.48 327.28 C 635.72 327.27, 635.35 327.26, 634.92 327.23 C 634.50 327.21, 634.41 327.20, 634.37 327.14 C 634.32 327.08, 634.37 327.04, 634.72 326.95 C 635.07 326.86, 635.34 326.84, 636.11 326.68 C 636.89 326.52, 637.46 326.40, 638.60 326.14 C 639.73 325.88, 640.45 325.72, 641.78 325.40 C 643.11 325.08, 643.86 324.91, 645.26 324.54 C 646.66 324.18, 647.43 323.97, 648.78 323.59 C 650.14 323.21, 650.85 323.03, 652.03 322.65 C 653.21 322.27, 653.73 322.07, 654.67 321.68 C 655.60 321.30, 656.04 321.16, 656.72 320.73 C 657.39 320.31, 657.71 320.06, 658.05 319.56 C 658.40 319.05, 658.45 318.71, 658.43 318.22 C 658.41 317.72, 658.31 317.45, 657.97 317.08 C 657.62 316.72, 657.32 316.50, 656.72 316.38 C 656.12 316.26, 655.65 316.25, 654.97 316.49 C 654.30 316.72, 653.88 316.99, 653.34 317.56 C 652.80 318.13, 652.53 318.57, 652.26 319.35 C 651.99 320.13, 651.90 320.61, 651.98 321.46 C 652.05 322.30, 652.20 322.82, 652.62 323.56 C 653.04 324.31, 653.39 324.67, 654.09 325.17 C 654.79 325.67, 655.24 325.83, 656.13 326.08 C 657.03 326.33, 657.59 326.42, 658.57 326.42 C 659.55 326.43, 660.10 326.38, 661.03 326.12 C 661.96 325.86, 662.39 325.62, 663.21 325.13 C 664.03 324.64, 664.45 324.34, 665.11 323.68 C 665.78 323.02, 666.08 322.64, 666.54 321.84 C 666.99 321.04, 667.11 320.56, 667.39 319.67 C 667.67 318.78, 667.78 318.30, 667.93 317.41 C 668.09 316.53, 668.16 316.05, 668.16 315.24 C 668.15 314.44, 668.08 313.93, 667.91 313.40 C 667.74 312.86, 667.51 312.63, 667.28 312.56 C 667.05 312.49, 666.88 312.62, 666.76 313.04 C 666.64 313.47, 666.56 313.88, 666.70 314.70 C 666.83 315.53, 667.04 316.15, 667.44 317.15 C 667.84 318.16, 668.21 318.79, 668.71 319.73 C 669.21 320.68, 669.49 321.11, 669.94 321.88 C 670.39 322.66, 670.59 323.01, 670.96 323.60 C 671.34 324.19, 671.46 324.46, 671.81 324.84 C 672.16 325.23, 672.32 325.39, 672.71 325.54 C 673.10 325.69, 673.32 325.73, 673.75 325.58 C 674.18 325.43, 674.39 325.25, 674.88 324.79 C 675.36 324.32, 675.67 323.93, 676.16 323.24 C 676.66 322.56, 676.94 322.06, 677.35 321.35 C 677.76 320.65, 677.93 320.21, 678.22 319.72 C 678.51 319.24, 678.64 319.05, 678.81 318.94 C 678.97 318.82, 678.95 318.88, 679.05 319.14 C 679.16 319.40, 679.13 319.69, 679.33 320.24 C 679.52 320.79, 679.65 321.28, 680.01 321.89 C 680.38 322.49, 680.67 322.77, 681.14 323.26 C 681.61 323.74, 681.84 323.94, 682.37 324.30 C 682.89 324.67, 683.16 324.85, 683.74 325.09 C 684.33 325.32, 684.65 325.42, 685.31 325.49 C 685.97 325.56, 686.39 325.57, 687.04 325.45 C 687.68 325.32, 687.99 325.16, 688.53 324.87 C 689.08 324.57, 689.35 324.31, 689.77 323.97 C 690.18 323.62, 690.39 323.40, 690.62 323.15 C 690.86 322.90, 690.84 322.72, 690.96 322.71 C 691.08 322.70, 691.05 322.80, 691.21 323.08 C 691.36 323.37, 691.44 323.68, 691.72 324.11 C 692.01 324.54, 692.23 324.83, 692.63 325.24 C 693.04 325.64, 693.31 325.85, 693.74 326.15 C 694.18 326.45, 694.42 326.57, 694.81 326.74 C 695.20 326.90, 695.39 326.93, 695.68 326.96 C 695.96 327.00, 696.06 326.98, 696.26 326.91 C 696.45 326.84, 696.60 326.74, 696.63 326.60 C 696.67 326.46, 696.53 326.28, 696.43 326.21 C 696.33 326.14, 696.23 326.27, 696.14 326.25 C 696.05 326.23, 696.12 326.21, 695.96 326.10 C 695.81 325.98, 695.65 325.88, 695.36 325.69 C 695.07 325.49, 694.85 325.41, 694.52 325.13 C 694.19 324.84, 694.02 324.64, 693.70 324.26 C 693.38 323.87, 693.25 323.60, 692.91 323.21 C 692.57 322.81, 692.38 322.53, 691.99 322.28 C 691.59 322.03, 691.35 321.97, 690.95 321.96 C 690.55 321.96, 690.39 322.06, 689.99 322.26 C 689.60 322.45, 689.38 322.64, 688.97 322.95 C 688.56 323.26, 688.36 323.54, 687.92 323.79 C 687.49 324.05, 687.31 324.15, 686.81 324.23 C 686.31 324.32, 685.97 324.28, 685.44 324.23 C 684.91 324.19, 684.65 324.16, 684.17 323.99 C 683.69 323.82, 683.46 323.68, 683.05 323.37 C 682.63 323.05, 682.44 322.87, 682.10 322.42 C 681.76 321.97, 681.65 321.69, 681.35 321.13 C 681.05 320.57, 680.93 320.12, 680.59 319.61 C 680.25 319.09, 680.06 318.84, 679.66 318.57 C 679.26 318.30, 679.07 318.18, 678.60 318.26 C 678.13 318.33, 677.82 318.50, 677.31 318.95 C 676.81 319.40, 676.58 319.85, 676.09 320.52 C 675.59 321.20, 675.29 321.63, 674.83 322.31 C 674.37 322.99, 674.09 323.40, 673.79 323.91 C 673.49 324.42, 673.47 324.66, 673.32 324.85 C 673.17 325.04, 673.19 324.99, 673.05 324.87 C 672.90 324.75, 672.82 324.61, 672.59 324.25 C 672.36 323.88, 672.23 323.64, 671.91 323.05 C 671.60 322.46, 671.40 322.09, 671.02 321.30 C 670.64 320.52, 670.42 320.07, 670.02 319.11 C 669.62 318.16, 669.39 317.50, 669.02 316.53 C 668.65 315.57, 668.46 315.02, 668.17 314.30 C 667.89 313.58, 667.82 313.26, 667.59 312.93 C 667.37 312.60, 667.22 312.52, 667.06 312.65 C 666.90 312.77, 666.84 313.02, 666.80 313.54 C 666.76 314.05, 666.89 314.49, 666.86 315.23 C 666.83 315.96, 666.81 316.38, 666.67 317.20 C 666.54 318.01, 666.43 318.49, 666.19 319.30 C 665.95 320.11, 665.87 320.55, 665.48 321.25 C 665.10 321.95, 664.84 322.25, 664.26 322.81 C 663.68 323.38, 663.30 323.66, 662.59 324.08 C 661.88 324.50, 661.51 324.70, 660.71 324.91 C 659.91 325.11, 659.43 325.11, 658.58 325.10 C 657.73 325.09, 657.21 325.04, 656.45 324.86 C 655.69 324.68, 655.32 324.58, 654.77 324.20 C 654.22 323.82, 653.99 323.54, 653.69 322.97 C 653.38 322.40, 653.27 321.99, 653.23 321.36 C 653.18 320.72, 653.25 320.36, 653.46 319.78 C 653.68 319.20, 653.90 318.89, 654.30 318.48 C 654.69 318.07, 654.98 317.93, 655.43 317.75 C 655.89 317.58, 656.18 317.60, 656.56 317.61 C 656.94 317.61, 657.14 317.66, 657.34 317.78 C 657.55 317.91, 657.61 317.99, 657.60 318.23 C 657.59 318.47, 657.59 318.67, 657.30 318.99 C 657.02 319.31, 656.79 319.50, 656.18 319.83 C 655.58 320.15, 655.16 320.30, 654.26 320.63 C 653.36 320.96, 652.83 321.14, 651.67 321.48 C 650.51 321.82, 649.79 321.98, 648.44 322.33 C 647.10 322.68, 646.33 322.90, 644.94 323.23 C 643.54 323.56, 642.80 323.71, 641.46 323.99 C 640.12 324.27, 639.40 324.36, 638.25 324.63 C 637.10 324.89, 636.51 325.00, 635.70 325.31 C 634.89 325.63, 634.57 325.80, 634.20 326.20 C 633.84 326.59, 633.79 326.91, 633.89 327.29 C 633.98 327.67, 634.17 327.87, 634.67 328.11 C 635.18 328.35, 635.58 328.39, 636.41 328.48 C 637.24 328.56, 637.80 328.60, 638.82 328.54 C 639.85 328.49, 640.43 328.39, 641.53 328.21 C 642.63 328.04, 643.26 327.92, 644.33 327.66 C 645.39 327.41, 645.95 327.29, 646.85 326.92 C 647.76 326.55, 648.21 326.33, 648.85 325.82 C 649.49 325.30, 649.76 325.00, 650.05 324.37 C 650.35 323.75, 650.41 323.41, 650.34 322.69 C 650.27 321.98, 650.14 321.49, 649.72 320.81 C 649.30 320.13, 648.89 319.81, 648.23 319.30 C 647.57 318.78, 647.20 318.56, 646.41 318.24 C 645.63 317.93, 645.13 317.78, 644.30 317.72 C 643.46 317.66, 643.03 317.74, 642.25 317.94 C 641.47 318.15, 641.06 318.32, 640.38 318.75 C 639.70 319.19, 639.36 319.52, 638.83 320.13 C 638.29 320.74, 638.08 321.15, 637.71 321.79 C 637.33 322.42, 637.20 322.77, 636.97 323.28 C 636.74 323.80, 636.70 324.05, 636.55 324.37 C 636.40 324.69, 636.38 324.80, 636.22 324.89 C 636.06 324.97, 635.97 324.96, 635.72 324.79 C 635.48 324.61, 635.32 324.46, 635.01 324.02 C 634.71 323.57, 634.53 323.30, 634.21 322.56 C 633.90 321.83, 633.73 321.38, 633.45 320.34 C 633.17 319.30, 633.05 318.59, 632.82 317.37 C 632.60 316.14, 632.52 315.42, 632.33 314.21 C 632.13 313.00, 632.03 312.29, 631.84 311.33 C 631.65 310.37, 631.54 309.98, 631.37 309.42 C 631.20 308.85, 631.15 308.68, 630.98 308.51 C 630.81 308.34, 630.66 308.35, 630.52 308.55" style="stroke: black; fill: black;"/><path d="M 689.54,312.79 C 689.50 312.96, 689.51 313.02, 689.57 313.19 C 689.62 313.36, 689.62 313.54, 689.80 313.62 C 689.99 313.71, 690.26 313.74, 690.48 313.62 C 690.70 313.50, 690.84 313.26, 690.90 313.02 C 690.96 312.79, 690.88 312.59, 690.76 312.44 C 690.64 312.28, 690.50 312.25, 690.30 312.23 C 690.11 312.21, 689.96 312.23, 689.81 312.34 C 689.65 312.45, 689.59 312.62, 689.54 312.79" style="stroke: black; fill: black;"/><path d="M 700.20,318.94 C 700.18 319.20, 700.33 319.43, 700.51 319.90 C 700.69 320.37, 700.83 320.68, 701.10 321.29 C 701.37 321.90, 701.54 322.32, 701.87 322.93 C 702.20 323.54, 702.37 323.88, 702.74 324.33 C 703.12 324.78, 703.34 324.98, 703.75 325.19 C 704.16 325.40, 704.36 325.44, 704.78 325.38 C 705.21 325.32, 705.45 325.20, 705.86 324.90 C 706.26 324.60, 706.46 324.36, 706.83 323.88 C 707.21 323.40, 707.36 323.08, 707.73 322.51 C 708.10 321.94, 708.28 321.57, 708.67 321.04 C 709.05 320.52, 709.28 320.25, 709.66 319.87 C 710.05 319.49, 710.26 319.32, 710.58 319.14 C 710.91 318.96, 711.04 318.92, 711.30 318.98 C 711.56 319.03, 711.67 319.16, 711.89 319.43 C 712.11 319.69, 712.21 319.87, 712.40 320.29 C 712.60 320.71, 712.65 321.00, 712.87 321.51 C 713.08 322.03, 713.18 322.34, 713.47 322.86 C 713.75 323.38, 713.93 323.65, 714.29 324.11 C 714.66 324.56, 714.83 324.84, 715.28 325.15 C 715.73 325.45, 716.23 325.62, 716.54 325.62 C 716.86 325.61, 716.96 325.40, 716.86 325.13 C 716.76 324.86, 716.36 324.61, 716.04 324.26 C 715.73 323.91, 715.57 323.76, 715.28 323.36 C 715.00 322.96, 714.85 322.73, 714.62 322.26 C 714.38 321.78, 714.33 321.52, 714.12 321.00 C 713.90 320.48, 713.85 320.14, 713.56 319.66 C 713.27 319.18, 713.07 318.92, 712.66 318.60 C 712.24 318.27, 711.97 318.12, 711.47 318.04 C 710.98 317.95, 710.71 318.00, 710.18 318.18 C 709.65 318.35, 709.37 318.53, 708.85 318.93 C 708.33 319.33, 708.04 319.63, 707.58 320.19 C 707.11 320.74, 706.90 321.14, 706.52 321.71 C 706.14 322.29, 705.97 322.59, 705.68 323.06 C 705.38 323.52, 705.24 323.73, 705.02 324.04 C 704.81 324.35, 704.74 324.50, 704.59 324.59 C 704.43 324.67, 704.41 324.65, 704.25 324.47 C 704.08 324.28, 703.97 324.10, 703.76 323.66 C 703.55 323.22, 703.46 322.89, 703.20 322.28 C 702.94 321.67, 702.79 321.21, 702.45 320.61 C 702.11 320.01, 701.87 319.67, 701.51 319.27 C 701.14 318.88, 700.88 318.70, 700.62 318.63 C 700.36 318.56, 700.22 318.69, 700.20 318.94" style="stroke: black; fill: black;"/><path d="M 730.79,322.83 C 730.98 322.67, 731.19 322.39, 731.20 321.94 C 731.20 321.49, 731.11 321.10, 730.84 320.59 C 730.56 320.08, 730.36 319.78, 729.84 319.38 C 729.33 318.98, 728.95 318.80, 728.27 318.61 C 727.58 318.41, 727.17 318.37, 726.42 318.40 C 725.67 318.42, 725.24 318.48, 724.53 318.72 C 723.83 318.95, 723.44 319.15, 722.89 319.58 C 722.34 320.02, 722.11 320.32, 721.80 320.89 C 721.49 321.46, 721.36 321.78, 721.35 322.45 C 721.33 323.11, 721.39 323.55, 721.75 324.20 C 722.11 324.85, 722.49 325.24, 723.14 325.69 C 723.79 326.15, 724.23 326.28, 724.99 326.46 C 725.75 326.65, 726.15 326.70, 726.94 326.62 C 727.74 326.54, 728.20 326.41, 728.95 326.05 C 729.70 325.69, 730.02 325.43, 730.68 324.80 C 731.33 324.17, 731.68 323.81, 732.23 322.90 C 732.78 322.00, 733.05 321.41, 733.41 320.28 C 733.77 319.15, 733.88 318.47, 734.04 317.25 C 734.20 316.03, 734.25 315.27, 734.22 314.19 C 734.20 313.11, 734.09 312.50, 733.91 311.85 C 733.73 311.20, 733.53 310.98, 733.33 310.95 C 733.12 310.92, 732.96 311.14, 732.88 311.69 C 732.80 312.24, 732.75 312.75, 732.93 313.71 C 733.12 314.66, 733.33 315.34, 733.79 316.47 C 734.24 317.59, 734.61 318.27, 735.20 319.34 C 735.80 320.42, 736.17 320.91, 736.78 321.85 C 737.39 322.78, 737.66 323.22, 738.25 324.02 C 738.84 324.83, 739.15 325.26, 739.72 325.87 C 740.30 326.49, 740.65 326.75, 741.11 327.11 C 741.58 327.48, 741.82 327.64, 742.07 327.70 C 742.31 327.76, 742.40 327.67, 742.34 327.43 C 742.28 327.18, 742.12 326.94, 741.78 326.47 C 741.43 326.00, 741.14 325.72, 740.62 325.09 C 740.11 324.46, 739.77 324.10, 739.21 323.32 C 738.65 322.55, 738.38 322.12, 737.83 321.19 C 737.28 320.27, 736.96 319.76, 736.45 318.70 C 735.94 317.64, 735.69 316.96, 735.28 315.88 C 734.88 314.81, 734.73 314.18, 734.43 313.32 C 734.13 312.45, 734.03 312.01, 733.79 311.54 C 733.55 311.08, 733.41 310.90, 733.23 310.97 C 733.05 311.05, 732.97 311.29, 732.90 311.93 C 732.82 312.57, 732.90 313.15, 732.85 314.17 C 732.81 315.20, 732.81 315.93, 732.66 317.07 C 732.51 318.21, 732.42 318.84, 732.11 319.88 C 731.80 320.91, 731.56 321.43, 731.10 322.24 C 730.64 323.05, 730.35 323.39, 729.81 323.93 C 729.28 324.48, 729.02 324.67, 728.42 324.97 C 727.82 325.27, 727.45 325.36, 726.83 325.41 C 726.20 325.47, 725.89 325.42, 725.30 325.26 C 724.71 325.09, 724.39 324.94, 723.89 324.60 C 723.40 324.26, 723.11 323.99, 722.82 323.56 C 722.52 323.13, 722.45 322.87, 722.44 322.45 C 722.43 322.02, 722.53 321.82, 722.76 321.44 C 723.00 321.06, 723.18 320.85, 723.61 320.55 C 724.04 320.25, 724.35 320.11, 724.92 319.95 C 725.49 319.78, 725.86 319.74, 726.46 319.72 C 727.06 319.71, 727.40 319.73, 727.92 319.87 C 728.43 320.00, 728.69 320.14, 729.03 320.41 C 729.37 320.69, 729.44 320.91, 729.64 321.25 C 729.84 321.59, 729.91 321.82, 730.04 322.12 C 730.16 322.42, 730.12 322.63, 730.27 322.77 C 730.42 322.92, 730.61 323.00, 730.79 322.83" style="stroke: black; fill: black;"/><path d="M 779.81,310.70 C 779.70 310.97, 779.73 311.25, 779.75 311.94 C 779.77 312.64, 779.75 313.11, 779.91 314.17 C 780.07 315.24, 780.25 316.01, 780.56 317.28 C 780.86 318.54, 781.08 319.30, 781.43 320.49 C 781.78 321.69, 781.93 322.25, 782.31 323.24 C 782.70 324.23, 783.05 325.03, 783.36 325.44 C 783.66 325.84, 783.84 325.77, 783.85 325.27 C 783.85 324.77, 783.59 323.95, 783.38 322.92 C 783.16 321.90, 783.02 321.35, 782.76 320.15 C 782.51 318.95, 782.36 318.18, 782.09 316.92 C 781.81 315.67, 781.63 314.92, 781.37 313.88 C 781.12 312.85, 781.04 312.41, 780.82 311.75 C 780.60 311.10, 780.49 310.82, 780.29 310.61 C 780.09 310.40, 779.92 310.43, 779.81 310.70" style="stroke: black; fill: black;"/><path d="M 773.57,322.18 C 773.77 322.31, 773.95 322.32, 774.53 322.40 C 775.11 322.48, 775.52 322.56, 776.47 322.58 C 777.42 322.61, 778.08 322.61, 779.30 322.54 C 780.51 322.47, 781.26 322.44, 782.55 322.22 C 783.84 322.00, 784.57 321.82, 785.74 321.45 C 786.92 321.08, 787.48 320.85, 788.42 320.37 C 789.37 319.89, 789.76 319.62, 790.47 319.05 C 791.17 318.47, 791.49 318.14, 791.93 317.50 C 792.37 316.87, 792.52 316.51, 792.67 315.87 C 792.81 315.23, 792.81 314.78, 792.65 314.31 C 792.49 313.84, 792.20 313.52, 791.89 313.52 C 791.58 313.52, 791.27 313.72, 791.10 314.29 C 790.93 314.86, 790.94 315.41, 791.05 316.36 C 791.16 317.30, 791.32 317.96, 791.64 319.00 C 791.97 320.05, 792.20 320.65, 792.65 321.58 C 793.11 322.51, 793.42 322.92, 793.92 323.64 C 794.42 324.36, 794.66 324.67, 795.18 325.18 C 795.69 325.69, 795.97 325.89, 796.50 326.19 C 797.04 326.50, 797.30 326.61, 797.85 326.71 C 798.39 326.82, 798.67 326.84, 799.22 326.71 C 799.76 326.58, 800.06 326.41, 800.58 326.07 C 801.09 325.72, 801.32 325.47, 801.80 324.99 C 802.27 324.51, 802.54 324.20, 802.96 323.67 C 803.38 323.13, 803.55 322.74, 803.90 322.32 C 804.24 321.89, 804.36 321.69, 804.67 321.53 C 804.99 321.36, 805.14 321.40, 805.45 321.49 C 805.77 321.58, 805.89 321.72, 806.23 321.99 C 806.58 322.27, 806.78 322.51, 807.17 322.87 C 807.56 323.23, 807.79 323.47, 808.20 323.82 C 808.61 324.16, 808.77 324.29, 809.21 324.61 C 809.65 324.94, 809.89 325.17, 810.40 325.43 C 810.91 325.70, 811.28 325.82, 811.76 325.92 C 812.23 326.03, 812.43 325.97, 812.78 325.95 C 813.13 325.93, 813.35 325.93, 813.51 325.82 C 813.67 325.71, 813.70 325.56, 813.59 325.40 C 813.47 325.24, 813.25 325.17, 812.95 325.03 C 812.66 324.89, 812.51 324.86, 812.12 324.70 C 811.73 324.55, 811.43 324.46, 810.99 324.25 C 810.54 324.04, 810.29 323.92, 809.90 323.65 C 809.52 323.38, 809.41 323.26, 809.05 322.90 C 808.69 322.53, 808.54 322.23, 808.10 321.84 C 807.67 321.46, 807.39 321.24, 806.90 320.97 C 806.41 320.70, 806.18 320.59, 805.65 320.51 C 805.13 320.43, 804.82 320.39, 804.28 320.58 C 803.74 320.77, 803.46 321.00, 802.98 321.44 C 802.49 321.89, 802.31 322.27, 801.88 322.79 C 801.44 323.32, 801.22 323.60, 800.81 324.05 C 800.40 324.51, 800.21 324.74, 799.83 325.06 C 799.45 325.39, 799.28 325.54, 798.92 325.67 C 798.56 325.80, 798.42 325.79, 798.04 325.71 C 797.67 325.64, 797.46 325.54, 797.04 325.29 C 796.62 325.03, 796.38 324.88, 795.96 324.43 C 795.53 323.97, 795.32 323.67, 794.90 323.00 C 794.49 322.32, 794.23 321.92, 793.88 321.04 C 793.54 320.15, 793.43 319.57, 793.19 318.57 C 792.94 317.58, 792.85 316.93, 792.65 316.08 C 792.45 315.22, 792.34 314.76, 792.18 314.30 C 792.02 313.84, 791.96 313.74, 791.86 313.77 C 791.75 313.79, 791.69 314.05, 791.63 314.43 C 791.58 314.80, 791.69 315.13, 791.57 315.62 C 791.46 316.11, 791.41 316.38, 791.05 316.89 C 790.69 317.40, 790.40 317.69, 789.77 318.18 C 789.15 318.66, 788.79 318.91, 787.91 319.32 C 787.03 319.73, 786.49 319.91, 785.38 320.21 C 784.26 320.51, 783.57 320.66, 782.34 320.82 C 781.10 320.97, 780.39 320.95, 779.21 321.01 C 778.03 321.06, 777.39 321.03, 776.44 321.09 C 775.50 321.16, 775.07 321.20, 774.49 321.32 C 773.91 321.45, 773.71 321.55, 773.53 321.72 C 773.35 321.89, 773.37 322.04, 773.57 322.18" style="stroke: black; fill: black;"/><path d="M 822.86,320.97 C 822.71 320.84, 822.57 320.73, 822.18 320.77 C 821.78 320.82, 821.40 320.84, 820.89 321.20 C 820.37 321.55, 820.05 321.90, 819.60 322.54 C 819.16 323.18, 818.89 323.63, 818.66 324.41 C 818.43 325.18, 818.32 325.69, 818.45 326.41 C 818.57 327.13, 818.77 327.50, 819.28 328.00 C 819.79 328.51, 820.20 328.71, 821.00 328.91 C 821.80 329.12, 822.36 329.11, 823.26 329.03 C 824.17 328.95, 824.69 328.81, 825.53 328.49 C 826.37 328.17, 826.79 327.95, 827.45 327.44 C 828.12 326.92, 828.46 326.60, 828.86 325.93 C 829.25 325.25, 829.41 324.84, 829.41 324.06 C 829.41 323.28, 829.29 322.77, 828.87 322.04 C 828.45 321.31, 828.08 320.93, 827.31 320.42 C 826.54 319.90, 825.99 319.70, 825.03 319.44 C 824.08 319.19, 823.41 319.13, 822.54 319.15 C 821.67 319.17, 821.27 319.38, 820.69 319.56 C 820.12 319.74, 819.87 319.87, 819.68 320.05 C 819.49 320.22, 819.53 320.33, 819.76 320.42 C 819.99 320.51, 820.28 320.47, 820.83 320.49 C 821.38 320.50, 821.74 320.43, 822.51 320.49 C 823.28 320.56, 823.86 320.60, 824.69 320.80 C 825.51 321.00, 825.99 321.13, 826.62 321.50 C 827.26 321.87, 827.52 322.14, 827.85 322.65 C 828.19 323.17, 828.30 323.53, 828.31 324.07 C 828.32 324.61, 828.22 324.87, 827.91 325.35 C 827.60 325.83, 827.31 326.08, 826.74 326.46 C 826.18 326.84, 825.81 327.01, 825.09 327.25 C 824.36 327.48, 823.89 327.55, 823.12 327.64 C 822.35 327.73, 821.87 327.77, 821.24 327.69 C 820.61 327.61, 820.30 327.53, 819.97 327.25 C 819.63 326.98, 819.55 326.77, 819.55 326.30 C 819.56 325.83, 819.73 325.47, 819.99 324.90 C 820.26 324.33, 820.53 323.95, 820.89 323.44 C 821.26 322.93, 821.48 322.67, 821.81 322.34 C 822.14 322.00, 822.32 321.95, 822.54 321.76 C 822.76 321.58, 822.86 321.58, 822.92 321.42 C 822.99 321.26, 823.01 321.10, 822.86 320.97" style="stroke: black; fill: black;"/><path d="M 840.29,317.45 C 840.20 317.25, 840.02 317.09, 839.68 316.94 C 839.33 316.79, 839.10 316.70, 838.56 316.69 C 838.02 316.69, 837.57 316.72, 836.98 316.93 C 836.39 317.14, 836.06 317.36, 835.60 317.75 C 835.14 318.14, 834.92 318.40, 834.68 318.88 C 834.44 319.36, 834.35 319.63, 834.38 320.17 C 834.42 320.71, 834.51 321.04, 834.85 321.56 C 835.19 322.09, 835.50 322.36, 836.09 322.81 C 836.68 323.26, 837.08 323.41, 837.78 323.80 C 838.48 324.19, 838.92 324.41, 839.61 324.76 C 840.30 325.12, 840.70 325.31, 841.22 325.57 C 841.74 325.84, 841.96 325.93, 842.19 326.09 C 842.43 326.26, 842.51 326.32, 842.39 326.39 C 842.26 326.46, 842.05 326.40, 841.57 326.44 C 841.10 326.49, 840.67 326.51, 840.01 326.63 C 839.35 326.74, 838.94 326.88, 838.29 327.00 C 837.63 327.11, 837.25 327.10, 836.74 327.22 C 836.23 327.33, 836.00 327.44, 835.74 327.57 C 835.48 327.70, 835.50 327.77, 835.45 327.87 C 835.39 327.96, 835.40 327.98, 835.48 328.06 C 835.55 328.14, 835.53 328.18, 835.80 328.26 C 836.07 328.35, 836.29 328.44, 836.83 328.49 C 837.37 328.53, 837.79 328.54, 838.49 328.47 C 839.19 328.41, 839.63 328.33, 840.32 328.16 C 841.02 328.00, 841.44 327.93, 841.97 327.64 C 842.50 327.36, 842.78 327.16, 842.96 326.75 C 843.14 326.34, 843.08 326.04, 842.87 325.59 C 842.65 325.15, 842.41 324.96, 841.89 324.55 C 841.38 324.13, 840.97 323.93, 840.29 323.53 C 839.60 323.13, 839.15 322.91, 838.47 322.54 C 837.79 322.17, 837.42 322.02, 836.88 321.68 C 836.35 321.34, 836.11 321.16, 835.81 320.84 C 835.51 320.52, 835.42 320.36, 835.38 320.08 C 835.34 319.80, 835.40 319.69, 835.60 319.44 C 835.80 319.18, 836.01 319.04, 836.38 318.82 C 836.76 318.61, 837.00 318.50, 837.46 318.36 C 837.91 318.23, 838.26 318.21, 838.66 318.14 C 839.07 318.06, 839.20 318.04, 839.49 318.01 C 839.77 317.97, 839.94 318.06, 840.10 317.95 C 840.27 317.84, 840.37 317.65, 840.29 317.45" style="stroke: black; fill: black;"/><path d="M 846.85,324.69 C 847.15 324.75, 847.50 324.68, 848.17 324.52 C 848.84 324.36, 849.27 324.22, 850.18 323.89 C 851.09 323.55, 851.70 323.30, 852.72 322.85 C 853.74 322.41, 854.36 322.15, 855.28 321.65 C 856.21 321.15, 856.67 320.85, 857.34 320.37 C 858.02 319.89, 858.32 319.69, 858.65 319.25 C 858.98 318.80, 859.06 318.55, 858.98 318.14 C 858.89 317.74, 858.70 317.48, 858.21 317.23 C 857.73 316.99, 857.32 316.89, 856.55 316.90 C 855.79 316.91, 855.28 317.02, 854.38 317.29 C 853.48 317.56, 852.94 317.77, 852.07 318.24 C 851.20 318.71, 850.69 319.01, 850.04 319.63 C 849.39 320.25, 849.08 320.68, 848.82 321.34 C 848.57 322.01, 848.56 322.38, 848.76 322.98 C 848.95 323.57, 849.18 323.86, 849.81 324.33 C 850.44 324.81, 850.89 325.06, 851.90 325.34 C 852.92 325.62, 853.59 325.64, 854.88 325.73 C 856.18 325.83, 856.90 325.80, 858.37 325.80 C 859.83 325.80, 860.68 325.79, 862.19 325.73 C 863.71 325.66, 864.49 325.59, 865.94 325.46 C 867.38 325.33, 868.20 325.26, 869.40 325.09 C 870.61 324.92, 871.16 324.80, 871.97 324.61 C 872.78 324.43, 873.16 324.32, 873.45 324.15 C 873.74 323.98, 873.72 323.86, 873.40 323.78 C 873.08 323.69, 872.68 323.71, 871.86 323.72 C 871.03 323.74, 870.48 323.77, 869.27 323.85 C 868.07 323.94, 867.26 324.05, 865.83 324.15 C 864.40 324.26, 863.63 324.34, 862.14 324.38 C 860.65 324.43, 859.80 324.41, 858.37 324.40 C 856.94 324.38, 856.21 324.38, 854.98 324.30 C 853.75 324.22, 853.14 324.18, 852.22 324.00 C 851.31 323.81, 850.94 323.65, 850.41 323.39 C 849.87 323.13, 849.68 323.01, 849.55 322.69 C 849.42 322.37, 849.47 322.20, 849.73 321.78 C 850.00 321.37, 850.29 321.06, 850.88 320.61 C 851.48 320.15, 851.93 319.89, 852.71 319.52 C 853.50 319.14, 854.02 318.98, 854.81 318.74 C 855.61 318.51, 856.05 318.45, 856.68 318.34 C 857.30 318.23, 857.59 318.21, 857.95 318.19 C 858.30 318.18, 858.42 318.17, 858.44 318.26 C 858.46 318.35, 858.38 318.41, 858.04 318.63 C 857.69 318.85, 857.39 319.00, 856.71 319.36 C 856.04 319.71, 855.59 320.00, 854.67 320.42 C 853.75 320.84, 853.13 321.04, 852.12 321.46 C 851.11 321.88, 850.50 322.13, 849.62 322.53 C 848.75 322.93, 848.34 323.13, 847.75 323.47 C 847.16 323.80, 846.85 323.97, 846.67 324.21 C 846.49 324.46, 846.55 324.63, 846.85 324.69" style="stroke: black; fill: black;"/><path d="M 902.72,326.38 C 902.90 326.45, 903.03 326.40, 903.38 326.30 C 903.72 326.20, 903.90 326.13, 904.44 325.89 C 904.98 325.65, 905.36 325.48, 906.08 325.09 C 906.81 324.70, 907.30 324.44, 908.08 323.94 C 908.86 323.44, 909.28 323.10, 910.00 322.57 C 910.72 322.03, 911.08 321.78, 911.68 321.26 C 912.27 320.73, 912.59 320.47, 912.96 319.94 C 913.32 319.41, 913.44 319.10, 913.49 318.60 C 913.54 318.11, 913.47 317.84, 913.20 317.44 C 912.93 317.04, 912.74 316.84, 912.14 316.60 C 911.53 316.37, 911.08 316.26, 910.18 316.28 C 909.28 316.29, 908.68 316.37, 907.65 316.68 C 906.63 316.98, 906.07 317.27, 905.07 317.82 C 904.07 318.37, 903.43 318.70, 902.65 319.43 C 901.86 320.16, 901.42 320.62, 901.13 321.47 C 900.84 322.33, 900.90 322.89, 901.20 323.72 C 901.49 324.56, 901.78 325.00, 902.61 325.66 C 903.43 326.33, 904.06 326.62, 905.33 327.04 C 906.60 327.45, 907.46 327.60, 908.95 327.75 C 910.45 327.90, 911.30 327.86, 912.80 327.77 C 914.31 327.68, 915.10 327.57, 916.48 327.31 C 917.86 327.06, 918.57 326.89, 919.70 326.52 C 920.83 326.14, 921.30 325.89, 922.11 325.44 C 922.91 324.99, 923.20 324.75, 923.72 324.25 C 924.23 323.76, 924.43 323.49, 924.68 322.96 C 924.92 322.43, 924.96 322.10, 924.94 321.61 C 924.93 321.12, 924.83 320.83, 924.62 320.51 C 924.40 320.18, 924.19 320.02, 923.87 319.98 C 923.55 319.93, 923.23 320.00, 923.00 320.28 C 922.76 320.57, 922.63 320.88, 922.69 321.40 C 922.75 321.92, 922.91 322.31, 923.30 322.89 C 923.69 323.47, 924.02 323.80, 924.64 324.31 C 925.26 324.83, 925.66 325.08, 926.42 325.48 C 927.18 325.87, 927.61 326.06, 928.44 326.28 C 929.26 326.50, 929.73 326.55, 930.53 326.59 C 931.33 326.62, 931.73 326.58, 932.46 326.45 C 933.19 326.33, 933.58 326.22, 934.20 325.95 C 934.82 325.68, 935.10 325.48, 935.56 325.10 C 936.02 324.72, 936.21 324.49, 936.50 324.07 C 936.78 323.65, 936.93 323.34, 936.99 323.00 C 937.05 322.66, 936.93 322.42, 936.81 322.38 C 936.68 322.35, 936.47 322.39, 936.36 322.82 C 936.25 323.25, 936.18 323.64, 936.24 324.52 C 936.30 325.41, 936.43 326.05, 936.65 327.23 C 936.88 328.42, 937.04 329.14, 937.37 330.45 C 937.70 331.75, 937.95 332.49, 938.29 333.74 C 938.64 334.99, 938.85 335.59, 939.08 336.70 C 939.32 337.80, 939.38 338.35, 939.47 339.26 C 939.56 340.16, 939.63 340.58, 939.53 341.23 C 939.42 341.88, 939.30 342.10, 938.95 342.51 C 938.59 342.91, 938.39 343.05, 937.75 343.27 C 937.11 343.48, 936.71 343.57, 935.75 343.59 C 934.80 343.62, 934.17 343.56, 932.99 343.39 C 931.80 343.23, 931.08 343.11, 929.84 342.77 C 928.61 342.44, 927.92 342.22, 926.80 341.72 C 925.69 341.22, 925.14 340.91, 924.28 340.28 C 923.41 339.65, 923.06 339.29, 922.49 338.57 C 921.91 337.84, 921.70 337.42, 921.43 336.64 C 921.15 335.86, 921.06 335.46, 921.12 334.66 C 921.18 333.87, 921.30 333.48, 921.73 332.68 C 922.15 331.88, 922.48 331.43, 923.23 330.67 C 923.98 329.91, 924.45 329.51, 925.49 328.86 C 926.52 328.22, 927.16 327.98, 928.39 327.46 C 929.62 326.94, 930.31 326.65, 931.63 326.27 C 932.96 325.90, 933.65 325.80, 935.01 325.59 C 936.38 325.39, 937.10 325.38, 938.46 325.25 C 939.81 325.12, 940.51 325.10, 941.80 324.96 C 943.09 324.82, 943.74 324.77, 944.90 324.56 C 946.05 324.34, 946.63 324.24, 947.57 323.89 C 948.51 323.55, 948.93 323.31, 949.61 322.83 C 950.29 322.36, 950.57 322.07, 950.98 321.52 C 951.40 320.97, 951.58 320.68, 951.69 320.09 C 951.81 319.49, 951.78 319.12, 951.54 318.55 C 951.31 317.98, 951.06 317.62, 950.51 317.24 C 949.97 316.87, 949.52 316.72, 948.81 316.66 C 948.11 316.61, 947.65 316.69, 946.98 316.97 C 946.32 317.24, 945.97 317.51, 945.49 318.05 C 945.00 318.59, 944.75 318.96, 944.56 319.67 C 944.36 320.38, 944.33 320.86, 944.51 321.61 C 944.69 322.36, 944.88 322.77, 945.47 323.43 C 946.05 324.08, 946.48 324.40, 947.43 324.89 C 948.39 325.37, 949.04 325.57, 950.24 325.84 C 951.44 326.10, 952.18 326.17, 953.44 326.21 C 954.71 326.25, 955.39 326.21, 956.57 326.04 C 957.74 325.87, 958.32 325.70, 959.32 325.36 C 960.32 325.02, 960.82 324.81, 961.58 324.33 C 962.33 323.85, 962.54 323.54, 963.11 322.98 C 963.68 322.42, 963.97 322.11, 964.43 321.52 C 964.88 320.92, 965.09 320.60, 965.39 320.01 C 965.69 319.43, 965.77 319.07, 965.93 318.60 C 966.08 318.12, 966.12 317.91, 966.16 317.64 C 966.20 317.36, 966.13 317.26, 966.12 317.23 C 966.11 317.20, 966.01 317.27, 966.10 317.48 C 966.20 317.69, 966.27 317.89, 966.58 318.28 C 966.89 318.66, 967.17 318.93, 967.66 319.40 C 968.14 319.87, 968.50 320.13, 969.01 320.62 C 969.53 321.10, 969.82 321.34, 970.24 321.82 C 970.67 322.31, 970.86 322.56, 971.12 323.05 C 971.38 323.54, 971.45 323.79, 971.56 324.29 C 971.66 324.78, 971.68 325.08, 971.64 325.51 C 971.60 325.94, 971.57 326.10, 971.36 326.45 C 971.16 326.81, 970.98 326.98, 970.63 327.28 C 970.28 327.57, 970.07 327.70, 969.60 327.92 C 969.12 328.15, 968.83 328.26, 968.26 328.41 C 967.68 328.57, 967.33 328.62, 966.71 328.72 C 966.09 328.81, 965.75 328.84, 965.15 328.88 C 964.54 328.92, 964.22 328.93, 963.68 328.92 C 963.14 328.92, 962.87 328.85, 962.46 328.86 C 962.05 328.88, 961.88 328.93, 961.64 329.00 C 961.40 329.06, 961.34 329.09, 961.25 329.18 C 961.17 329.27, 961.15 329.35, 961.21 329.46 C 961.28 329.57, 961.34 329.62, 961.56 329.73 C 961.79 329.84, 961.94 329.92, 962.36 330.00 C 962.77 330.09, 963.07 330.14, 963.64 330.17 C 964.21 330.20, 964.57 330.19, 965.22 330.16 C 965.87 330.13, 966.22 330.11, 966.90 330.02 C 967.58 329.92, 967.96 329.87, 968.62 329.68 C 969.27 329.49, 969.61 329.36, 970.17 329.06 C 970.74 328.75, 971.00 328.58, 971.43 328.17 C 971.87 327.76, 972.09 327.50, 972.35 326.99 C 972.62 326.48, 972.69 326.22, 972.77 325.63 C 972.84 325.04, 972.83 324.68, 972.71 324.06 C 972.59 323.43, 972.46 323.12, 972.17 322.52 C 971.87 321.91, 971.66 321.61, 971.24 321.03 C 970.81 320.45, 970.54 320.17, 970.05 319.62 C 969.56 319.06, 969.27 318.73, 968.78 318.25 C 968.29 317.76, 968.03 317.49, 967.60 317.19 C 967.17 316.88, 966.96 316.79, 966.61 316.71 C 966.26 316.63, 966.12 316.67, 965.86 316.78 C 965.60 316.90, 965.52 316.99, 965.31 317.26 C 965.11 317.54, 965.05 317.74, 964.85 318.17 C 964.65 318.61, 964.58 318.93, 964.30 319.45 C 964.03 319.98, 963.87 320.26, 963.47 320.81 C 963.08 321.36, 962.81 321.68, 962.32 322.20 C 961.82 322.72, 961.68 322.99, 961.00 323.40 C 960.33 323.80, 959.88 323.95, 958.96 324.23 C 958.04 324.50, 957.49 324.66, 956.40 324.78 C 955.31 324.91, 954.68 324.91, 953.50 324.85 C 952.33 324.78, 951.64 324.69, 950.54 324.46 C 949.44 324.22, 948.85 324.05, 948.01 323.68 C 947.17 323.31, 946.81 323.08, 946.34 322.61 C 945.86 322.14, 945.76 321.86, 945.63 321.34 C 945.50 320.81, 945.55 320.49, 945.70 320.00 C 945.85 319.51, 946.04 319.25, 946.39 318.87 C 946.74 318.50, 946.99 318.31, 947.46 318.13 C 947.92 317.94, 948.25 317.91, 948.73 317.94 C 949.21 317.97, 949.49 318.05, 949.86 318.26 C 950.23 318.47, 950.40 318.66, 950.57 318.99 C 950.75 319.32, 950.81 319.52, 950.73 319.90 C 950.66 320.28, 950.52 320.47, 950.18 320.87 C 949.83 321.28, 949.60 321.55, 949.00 321.93 C 948.41 322.32, 948.06 322.53, 947.19 322.81 C 946.33 323.10, 945.79 323.19, 944.69 323.37 C 943.58 323.56, 942.94 323.61, 941.67 323.73 C 940.40 323.86, 939.71 323.89, 938.34 324.01 C 936.97 324.13, 936.24 324.14, 934.83 324.35 C 933.42 324.55, 932.68 324.65, 931.29 325.03 C 929.90 325.41, 929.18 325.70, 927.88 326.24 C 926.58 326.79, 925.90 327.04, 924.79 327.75 C 923.67 328.45, 923.12 328.89, 922.29 329.77 C 921.47 330.65, 921.11 331.18, 920.65 332.14 C 920.19 333.10, 920.05 333.62, 920.00 334.59 C 919.94 335.56, 920.05 336.07, 920.37 337.01 C 920.69 337.94, 920.95 338.41, 921.59 339.26 C 922.23 340.10, 922.63 340.50, 923.56 341.22 C 924.50 341.95, 925.08 342.31, 926.26 342.89 C 927.44 343.46, 928.16 343.72, 929.47 344.11 C 930.78 344.49, 931.52 344.65, 932.80 344.81 C 934.07 344.98, 934.76 345.03, 935.84 344.93 C 936.91 344.83, 937.41 344.66, 938.18 344.30 C 938.95 343.94, 939.22 343.70, 939.69 343.12 C 940.16 342.55, 940.34 342.22, 940.52 341.43 C 940.71 340.64, 940.66 340.17, 940.61 339.18 C 940.56 338.18, 940.49 337.61, 940.28 336.46 C 940.08 335.31, 939.88 334.68, 939.58 333.41 C 939.29 332.15, 939.07 331.41, 938.80 330.12 C 938.52 328.82, 938.43 328.10, 938.23 326.94 C 938.03 325.78, 937.95 325.16, 937.78 324.32 C 937.61 323.47, 937.57 323.16, 937.38 322.73 C 937.19 322.30, 937.09 322.22, 936.83 322.17 C 936.56 322.12, 936.32 322.23, 936.06 322.48 C 935.79 322.72, 935.75 323.04, 935.50 323.39 C 935.26 323.74, 935.19 323.94, 934.84 324.23 C 934.49 324.53, 934.26 324.66, 933.74 324.87 C 933.23 325.08, 932.89 325.17, 932.26 325.27 C 931.63 325.37, 931.29 325.41, 930.60 325.36 C 929.90 325.32, 929.50 325.26, 928.79 325.04 C 928.08 324.83, 927.70 324.66, 927.06 324.29 C 926.42 323.92, 926.10 323.67, 925.59 323.21 C 925.09 322.76, 924.88 322.44, 924.55 322.01 C 924.21 321.57, 924.11 321.31, 923.94 321.04 C 923.77 320.76, 923.75 320.70, 923.69 320.62 C 923.63 320.54, 923.64 320.57, 923.65 320.64 C 923.65 320.70, 923.67 320.76, 923.72 320.96 C 923.76 321.16, 923.87 321.32, 923.89 321.64 C 923.90 321.96, 923.96 322.18, 923.79 322.56 C 923.62 322.93, 923.48 323.14, 923.04 323.53 C 922.61 323.92, 922.34 324.13, 921.60 324.50 C 920.87 324.87, 920.41 325.07, 919.35 325.38 C 918.28 325.70, 917.59 325.85, 916.27 326.06 C 914.94 326.27, 914.17 326.38, 912.74 326.43 C 911.30 326.49, 910.49 326.48, 909.10 326.34 C 907.70 326.19, 906.90 326.03, 905.74 325.70 C 904.58 325.38, 904.02 325.18, 903.30 324.71 C 902.57 324.25, 902.36 323.95, 902.12 323.37 C 901.88 322.80, 901.82 322.44, 902.09 321.84 C 902.37 321.25, 902.75 320.97, 903.48 320.41 C 904.21 319.86, 904.81 319.53, 905.73 319.07 C 906.65 318.60, 907.17 318.34, 908.07 318.08 C 908.97 317.81, 909.50 317.81, 910.25 317.74 C 911.01 317.68, 911.38 317.70, 911.84 317.75 C 912.31 317.79, 912.41 317.81, 912.57 317.95 C 912.72 318.09, 912.73 318.18, 912.63 318.44 C 912.54 318.71, 912.44 318.89, 912.10 319.26 C 911.75 319.64, 911.47 319.87, 910.89 320.32 C 910.32 320.76, 909.95 321.00, 909.23 321.48 C 908.51 321.95, 908.09 322.24, 907.31 322.69 C 906.53 323.14, 906.06 323.33, 905.34 323.72 C 904.63 324.12, 904.25 324.31, 903.75 324.65 C 903.25 324.98, 903.10 325.14, 902.84 325.41 C 902.58 325.68, 902.49 325.78, 902.46 325.97 C 902.44 326.17, 902.53 326.32, 902.72 326.38" style="stroke: black; fill: black;"/></svg>